<svg width="442" height="394" viewBox="0 0 442 394" fill="none" xmlns="http://www.w3.org/2000/svg">
<g opacity="0.2">
<mask id="mask0_2213_7145" style="mask-type:alpha" maskUnits="userSpaceOnUse" x="-333" y="-206" width="653" height="653">
<circle cx="326.5" cy="326.5" r="326.5" transform="matrix(-1 8.74228e-08 8.74228e-08 1 320 -206)" fill="#D9D9D9"/>
</mask>
<g mask="url(#mask0_2213_7145)">
<rect width="55.2828" height="55.2828" transform="matrix(-1 8.74228e-08 8.74228e-08 1 331.568 -16.8672)" stroke="#093224" stroke-width="1.10566"/>
<rect width="55.2828" height="55.2828" transform="matrix(-1 8.74228e-08 8.74228e-08 1 276.285 -16.8672)" stroke="#093224" stroke-width="1.10566"/>
<rect width="55.2828" height="55.2828" transform="matrix(-1 8.74228e-08 8.74228e-08 1 221.004 -16.8672)" stroke="#093224" stroke-width="1.10566"/>
<rect width="55.2828" height="55.2828" transform="matrix(-1 8.74228e-08 8.74228e-08 1 165.721 -16.8672)" stroke="#093224" stroke-width="1.10566"/>
<rect width="55.2828" height="55.2828" transform="matrix(-1 8.74228e-08 8.74228e-08 1 110.438 -16.8672)" stroke="#093224" stroke-width="1.10566"/>
<rect width="55.2828" height="55.2828" transform="matrix(-1 8.74228e-08 8.74228e-08 1 55.1543 -16.8672)" stroke="#093224" stroke-width="1.10566"/>
<rect width="55.2828" height="55.2828" transform="matrix(-1 8.74228e-08 8.74228e-08 1 -0.128906 -16.8672)" stroke="#093224" stroke-width="1.10566"/>
<rect width="55.2828" height="55.2828" transform="matrix(-1 8.74228e-08 8.74228e-08 1 331.568 38.416)" stroke="#093224" stroke-width="1.10566"/>
<rect width="55.2828" height="55.2828" transform="matrix(-1 8.74228e-08 8.74228e-08 1 276.285 38.416)" stroke="#093224" stroke-width="1.10566"/>
<rect width="55.2828" height="55.2828" transform="matrix(-1 8.74228e-08 8.74228e-08 1 221.004 38.416)" stroke="#093224" stroke-width="1.10566"/>
<rect width="55.2828" height="55.2828" transform="matrix(-1 8.74228e-08 8.74228e-08 1 165.721 38.416)" stroke="#093224" stroke-width="1.10566"/>
<rect width="55.2828" height="55.2828" transform="matrix(-1 8.74228e-08 8.74228e-08 1 110.438 38.416)" stroke="#093224" stroke-width="1.10566"/>
<rect width="55.2828" height="55.2828" transform="matrix(-1 8.74228e-08 8.74228e-08 1 55.1543 38.416)" fill="#093224" stroke="#093224" stroke-width="1.10566"/>
<rect width="55.2828" height="55.2828" transform="matrix(-1 8.74228e-08 8.74228e-08 1 -0.128906 38.416)" stroke="#093224" stroke-width="1.10566"/>
<rect width="55.2828" height="55.2828" transform="matrix(-1 8.74228e-08 8.74228e-08 1 331.568 93.7012)" stroke="#093224" stroke-width="1.10566"/>
<rect width="55.2828" height="55.2828" transform="matrix(-1 8.74228e-08 8.74228e-08 1 276.285 93.7012)" stroke="#093224" stroke-width="1.10566"/>
<rect width="55.2828" height="55.2828" transform="matrix(-1 8.74228e-08 8.74228e-08 1 221.004 93.7012)" stroke="#093224" stroke-width="1.10566"/>
<rect width="55.2828" height="55.2828" transform="matrix(-1 8.74228e-08 8.74228e-08 1 165.721 93.7012)" stroke="#093224" stroke-width="1.10566"/>
<rect width="55.2828" height="55.2828" transform="matrix(-1 8.74228e-08 8.74228e-08 1 110.438 93.7012)" stroke="#093224" stroke-width="1.10566"/>
<rect width="55.2828" height="55.2828" transform="matrix(-1 8.74228e-08 8.74228e-08 1 55.1543 93.7012)" stroke="#093224" stroke-width="1.10566"/>
<rect width="55.2828" height="55.2828" transform="matrix(-1 8.74228e-08 8.74228e-08 1 -0.128906 93.7012)" stroke="#093224" stroke-width="1.10566"/>
<rect width="55.2828" height="55.2828" transform="matrix(-1 8.74228e-08 8.74228e-08 1 331.568 148.98)" stroke="#093224" stroke-width="1.10566"/>
<rect width="55.2828" height="55.2828" transform="matrix(-1 8.74228e-08 8.74228e-08 1 276.285 148.98)" stroke="#093224" stroke-width="1.10566"/>
<rect width="55.2828" height="55.2828" transform="matrix(-1 8.74228e-08 8.74228e-08 1 221.004 148.98)" stroke="#093224" stroke-width="1.10566"/>
<rect width="55.2828" height="55.2828" transform="matrix(-1 8.74228e-08 8.74228e-08 1 165.721 148.98)" fill="#093224" fill-opacity="0.05" stroke="#093224" stroke-width="1.10566"/>
<rect width="55.2828" height="55.2828" transform="matrix(-1 8.74228e-08 8.74228e-08 1 110.438 148.98)" stroke="#093224" stroke-width="1.10566"/>
<rect width="55.2828" height="55.2828" transform="matrix(-1 8.74228e-08 8.74228e-08 1 55.1543 148.98)" stroke="#093224" stroke-width="1.10566"/>
<rect width="55.2828" height="55.2828" transform="matrix(-1 8.74228e-08 8.74228e-08 1 -0.128906 148.98)" stroke="#093224" stroke-width="1.10566"/>
<rect width="55.2828" height="55.2828" transform="matrix(-1 8.74228e-08 8.74228e-08 1 331.568 204.266)" stroke="#093224" stroke-width="1.10566"/>
<rect width="55.2828" height="55.2828" transform="matrix(-1 8.74228e-08 8.74228e-08 1 276.285 204.266)" stroke="#093224" stroke-width="1.10566"/>
<rect width="55.2828" height="55.2828" transform="matrix(-1 8.74228e-08 8.74228e-08 1 221.004 204.266)" stroke="#093224" stroke-width="1.10566"/>
<rect width="55.2828" height="55.2828" transform="matrix(-1 8.74228e-08 8.74228e-08 1 165.721 204.266)" stroke="#093224" stroke-width="1.10566"/>
<rect width="55.2828" height="55.2828" transform="matrix(-1 8.74228e-08 8.74228e-08 1 110.438 204.266)" stroke="#093224" stroke-width="1.10566"/>
<rect width="55.2828" height="55.2828" transform="matrix(-1 8.74228e-08 8.74228e-08 1 55.1543 204.266)" stroke="#093224" stroke-width="1.10566"/>
<rect width="55.2828" height="55.2828" transform="matrix(-1 8.74228e-08 8.74228e-08 1 -0.128906 204.266)" stroke="#093224" stroke-width="1.10566"/>
<rect width="55.2828" height="55.2828" transform="matrix(-1 8.74228e-08 8.74228e-08 1 331.568 259.545)" stroke="#093224" stroke-width="1.10566"/>
<rect width="55.2828" height="55.2828" transform="matrix(-1 8.74228e-08 8.74228e-08 1 276.285 259.545)" stroke="#093224" stroke-width="1.10566"/>
<rect width="55.2828" height="55.2828" transform="matrix(-1 8.74228e-08 8.74228e-08 1 221.004 259.545)" stroke="#093224" stroke-width="1.10566"/>
<rect width="55.2828" height="55.2828" transform="matrix(-1 8.74228e-08 8.74228e-08 1 165.721 259.545)" stroke="#093224" stroke-width="1.10566"/>
<rect width="55.2828" height="55.2828" transform="matrix(-1 8.74228e-08 8.74228e-08 1 110.438 259.545)" stroke="#093224" stroke-width="1.10566"/>
<rect width="55.2828" height="55.2828" transform="matrix(-1 8.74228e-08 8.74228e-08 1 55.1543 259.545)" stroke="#093224" stroke-width="1.10566"/>
<rect width="55.2828" height="55.2828" transform="matrix(-1 8.74228e-08 8.74228e-08 1 -0.128906 259.545)" stroke="#093224" stroke-width="1.10566"/>
<rect width="55.2828" height="55.2828" transform="matrix(-1 8.74228e-08 8.74228e-08 1 331.568 314.83)" stroke="#093224" stroke-width="1.10566"/>
<rect width="55.2828" height="55.2828" transform="matrix(-1 8.74228e-08 8.74228e-08 1 276.285 314.83)" stroke="#093224" stroke-width="1.10566"/>
<rect width="55.2828" height="55.2828" transform="matrix(-1 8.74228e-08 8.74228e-08 1 221.004 314.83)" stroke="#093224" stroke-width="1.10566"/>
<rect width="55.2828" height="55.2828" transform="matrix(-1 8.74228e-08 8.74228e-08 1 165.721 314.83)" stroke="#093224" stroke-width="1.10566"/>
<rect width="55.2828" height="55.2828" transform="matrix(-1 8.74228e-08 8.74228e-08 1 110.438 314.83)" stroke="#093224" stroke-width="1.10566"/>
<rect width="55.2828" height="55.2828" transform="matrix(-1 8.74228e-08 8.74228e-08 1 55.1543 314.83)" stroke="#093224" stroke-width="1.10566"/>
<rect width="55.2828" height="55.2828" transform="matrix(-1 8.74228e-08 8.74228e-08 1 -0.128906 314.83)" stroke="#093224" stroke-width="1.10566"/>
<rect width="55.2828" height="55.2828" transform="matrix(-1 8.74228e-08 8.74228e-08 1 331.568 370.109)" stroke="#093224" stroke-width="1.10566"/>
<rect width="55.2828" height="55.2828" transform="matrix(-1 8.74228e-08 8.74228e-08 1 276.285 370.109)" stroke="#093224" stroke-width="1.10566"/>
<rect width="55.2828" height="55.2828" transform="matrix(-1 8.74228e-08 8.74228e-08 1 221.004 370.109)" stroke="#093224" stroke-width="1.10566"/>
<rect width="55.2828" height="55.2828" transform="matrix(-1 8.74228e-08 8.74228e-08 1 165.721 370.109)" stroke="#093224" stroke-width="1.10566"/>
<rect width="55.2828" height="55.2828" transform="matrix(-1 8.74228e-08 8.74228e-08 1 110.438 370.109)" stroke="#093224" stroke-width="1.10566"/>
<rect width="55.2828" height="55.2828" transform="matrix(-1 8.74228e-08 8.74228e-08 1 55.1543 370.109)" stroke="#093224" stroke-width="1.10566"/>
<rect width="55.2828" height="55.2828" transform="matrix(-1 8.74228e-08 8.74228e-08 1 -0.128906 370.109)" stroke="#093224" stroke-width="1.10566"/>
</g>
</g>
</svg>
