<svg width="442" height="394" viewBox="0 0 442 394" fill="none" xmlns="http://www.w3.org/2000/svg">
<g opacity="0.2">
<mask id="mask0_2227_2649" style="mask-type:alpha" maskUnits="userSpaceOnUse" x="122" y="-53" width="653" height="653">
<circle cx="326.5" cy="326.5" r="326.5" transform="matrix(1 -8.74228e-08 -8.74228e-08 -1 122 600)" fill="#D9D9D9"/>
</mask>
<g mask="url(#mask0_2227_2649)">
<rect width="55.2828" height="55.2828" transform="matrix(1 -8.74228e-08 -8.74228e-08 -1 110.432 410.867)" stroke="#093224" stroke-width="1.10566"/>
<rect width="55.2828" height="55.2828" transform="matrix(1 -8.74228e-08 -8.74228e-08 -1 165.715 410.867)" stroke="#093224" stroke-width="1.10566"/>
<rect width="55.2828" height="55.2828" transform="matrix(1 -8.74228e-08 -8.74228e-08 -1 220.996 410.867)" stroke="#093224" stroke-width="1.10566"/>
<rect width="55.2828" height="55.2828" transform="matrix(1 -8.74228e-08 -8.74228e-08 -1 276.279 410.867)" stroke="#093224" stroke-width="1.10566"/>
<rect width="55.2828" height="55.2828" transform="matrix(1 -8.74228e-08 -8.74228e-08 -1 331.562 410.867)" stroke="#093224" stroke-width="1.10566"/>
<rect width="55.2828" height="55.2828" transform="matrix(1 -8.74228e-08 -8.74228e-08 -1 386.846 410.867)" stroke="#093224" stroke-width="1.10566"/>
<rect width="55.2828" height="55.2828" transform="matrix(1 -8.74228e-08 -8.74228e-08 -1 442.129 410.867)" stroke="#093224" stroke-width="1.10566"/>
<rect width="55.2828" height="55.2828" transform="matrix(1 -8.74228e-08 -8.74228e-08 -1 110.432 355.584)" stroke="#093224" stroke-width="1.10566"/>
<rect width="55.2828" height="55.2828" transform="matrix(1 -8.74228e-08 -8.74228e-08 -1 165.715 355.584)" stroke="#093224" stroke-width="1.10566"/>
<rect width="55.2828" height="55.2828" transform="matrix(1 -8.74228e-08 -8.74228e-08 -1 220.996 355.584)" stroke="#093224" stroke-width="1.10566"/>
<rect width="55.2828" height="55.2828" transform="matrix(1 -8.74228e-08 -8.74228e-08 -1 276.279 355.584)" stroke="#093224" stroke-width="1.10566"/>
<rect width="55.2828" height="55.2828" transform="matrix(1 -8.74228e-08 -8.74228e-08 -1 331.562 355.584)" stroke="#093224" stroke-width="1.10566"/>
<rect width="55.2828" height="55.2828" transform="matrix(1 -8.74228e-08 -8.74228e-08 -1 386.846 355.584)" fill="#093224" stroke="#093224" stroke-width="1.10566"/>
<rect width="55.2828" height="55.2828" transform="matrix(1 -8.74228e-08 -8.74228e-08 -1 442.129 355.584)" stroke="#093224" stroke-width="1.10566"/>
<rect width="55.2828" height="55.2828" transform="matrix(1 -8.74228e-08 -8.74228e-08 -1 110.432 300.299)" stroke="#093224" stroke-width="1.10566"/>
<rect width="55.2828" height="55.2828" transform="matrix(1 -8.74228e-08 -8.74228e-08 -1 165.715 300.299)" stroke="#093224" stroke-width="1.10566"/>
<rect width="55.2828" height="55.2828" transform="matrix(1 -8.74228e-08 -8.74228e-08 -1 220.996 300.299)" stroke="#093224" stroke-width="1.10566"/>
<rect width="55.2828" height="55.2828" transform="matrix(1 -8.74228e-08 -8.74228e-08 -1 276.279 300.299)" stroke="#093224" stroke-width="1.10566"/>
<rect width="55.2828" height="55.2828" transform="matrix(1 -8.74228e-08 -8.74228e-08 -1 331.562 300.299)" stroke="#093224" stroke-width="1.10566"/>
<rect width="55.2828" height="55.2828" transform="matrix(1 -8.74228e-08 -8.74228e-08 -1 386.846 300.299)" stroke="#093224" stroke-width="1.10566"/>
<rect width="55.2828" height="55.2828" transform="matrix(1 -8.74228e-08 -8.74228e-08 -1 442.129 300.299)" stroke="#093224" stroke-width="1.10566"/>
<rect width="55.2828" height="55.2828" transform="matrix(1 -8.74228e-08 -8.74228e-08 -1 110.432 245.02)" stroke="#093224" stroke-width="1.10566"/>
<rect width="55.2828" height="55.2828" transform="matrix(1 -8.74228e-08 -8.74228e-08 -1 165.715 245.02)" stroke="#093224" stroke-width="1.10566"/>
<rect width="55.2828" height="55.2828" transform="matrix(1 -8.74228e-08 -8.74228e-08 -1 220.996 245.02)" stroke="#093224" stroke-width="1.10566"/>
<rect width="55.2828" height="55.2828" transform="matrix(1 -8.74228e-08 -8.74228e-08 -1 276.279 245.02)" fill="#093224" fill-opacity="0.05" stroke="#093224" stroke-width="1.10566"/>
<rect width="55.2828" height="55.2828" transform="matrix(1 -8.74228e-08 -8.74228e-08 -1 331.562 245.02)" stroke="#093224" stroke-width="1.10566"/>
<rect width="55.2828" height="55.2828" transform="matrix(1 -8.74228e-08 -8.74228e-08 -1 386.846 245.02)" stroke="#093224" stroke-width="1.10566"/>
<rect width="55.2828" height="55.2828" transform="matrix(1 -8.74228e-08 -8.74228e-08 -1 442.129 245.02)" stroke="#093224" stroke-width="1.10566"/>
<rect width="55.2828" height="55.2828" transform="matrix(1 -8.74228e-08 -8.74228e-08 -1 110.432 189.734)" stroke="#093224" stroke-width="1.10566"/>
<rect width="55.2828" height="55.2828" transform="matrix(1 -8.74228e-08 -8.74228e-08 -1 165.715 189.734)" stroke="#093224" stroke-width="1.10566"/>
<rect width="55.2828" height="55.2828" transform="matrix(1 -8.74228e-08 -8.74228e-08 -1 220.996 189.734)" stroke="#093224" stroke-width="1.10566"/>
<rect width="55.2828" height="55.2828" transform="matrix(1 -8.74228e-08 -8.74228e-08 -1 276.279 189.734)" stroke="#093224" stroke-width="1.10566"/>
<rect width="55.2828" height="55.2828" transform="matrix(1 -8.74228e-08 -8.74228e-08 -1 331.562 189.734)" stroke="#093224" stroke-width="1.10566"/>
<rect width="55.2828" height="55.2828" transform="matrix(1 -8.74228e-08 -8.74228e-08 -1 386.846 189.734)" stroke="#093224" stroke-width="1.10566"/>
<rect width="55.2828" height="55.2828" transform="matrix(1 -8.74228e-08 -8.74228e-08 -1 442.129 189.734)" stroke="#093224" stroke-width="1.10566"/>
<rect width="55.2828" height="55.2828" transform="matrix(1 -8.74228e-08 -8.74228e-08 -1 110.432 134.455)" stroke="#093224" stroke-width="1.10566"/>
<rect width="55.2828" height="55.2828" transform="matrix(1 -8.74228e-08 -8.74228e-08 -1 165.715 134.455)" stroke="#093224" stroke-width="1.10566"/>
<rect width="55.2828" height="55.2828" transform="matrix(1 -8.74228e-08 -8.74228e-08 -1 220.996 134.455)" stroke="#093224" stroke-width="1.10566"/>
<rect width="55.2828" height="55.2828" transform="matrix(1 -8.74228e-08 -8.74228e-08 -1 276.279 134.455)" stroke="#093224" stroke-width="1.10566"/>
<rect width="55.2828" height="55.2828" transform="matrix(1 -8.74228e-08 -8.74228e-08 -1 331.562 134.455)" stroke="#093224" stroke-width="1.10566"/>
<rect width="55.2828" height="55.2828" transform="matrix(1 -8.74228e-08 -8.74228e-08 -1 386.846 134.455)" stroke="#093224" stroke-width="1.10566"/>
<rect width="55.2828" height="55.2828" transform="matrix(1 -8.74228e-08 -8.74228e-08 -1 442.129 134.455)" stroke="#093224" stroke-width="1.10566"/>
<rect width="55.2828" height="55.2828" transform="matrix(1 -8.74228e-08 -8.74228e-08 -1 110.432 79.1699)" stroke="#093224" stroke-width="1.10566"/>
<rect width="55.2828" height="55.2828" transform="matrix(1 -8.74228e-08 -8.74228e-08 -1 165.715 79.1699)" stroke="#093224" stroke-width="1.10566"/>
<rect width="55.2828" height="55.2828" transform="matrix(1 -8.74228e-08 -8.74228e-08 -1 220.996 79.1699)" stroke="#093224" stroke-width="1.10566"/>
<rect width="55.2828" height="55.2828" transform="matrix(1 -8.74228e-08 -8.74228e-08 -1 276.279 79.1699)" stroke="#093224" stroke-width="1.10566"/>
<rect width="55.2828" height="55.2828" transform="matrix(1 -8.74228e-08 -8.74228e-08 -1 331.562 79.1699)" stroke="#093224" stroke-width="1.10566"/>
<rect width="55.2828" height="55.2828" transform="matrix(1 -8.74228e-08 -8.74228e-08 -1 386.846 79.1699)" stroke="#093224" stroke-width="1.10566"/>
<rect width="55.2828" height="55.2828" transform="matrix(1 -8.74228e-08 -8.74228e-08 -1 442.129 79.1699)" stroke="#093224" stroke-width="1.10566"/>
<rect width="55.2828" height="55.2828" transform="matrix(1 -8.74228e-08 -8.74228e-08 -1 110.432 23.8906)" stroke="#093224" stroke-width="1.10566"/>
<rect width="55.2828" height="55.2828" transform="matrix(1 -8.74228e-08 -8.74228e-08 -1 165.715 23.8906)" stroke="#093224" stroke-width="1.10566"/>
<rect width="55.2828" height="55.2828" transform="matrix(1 -8.74228e-08 -8.74228e-08 -1 220.996 23.8906)" stroke="#093224" stroke-width="1.10566"/>
<rect width="55.2828" height="55.2828" transform="matrix(1 -8.74228e-08 -8.74228e-08 -1 276.279 23.8906)" stroke="#093224" stroke-width="1.10566"/>
<rect width="55.2828" height="55.2828" transform="matrix(1 -8.74228e-08 -8.74228e-08 -1 331.562 23.8906)" stroke="#093224" stroke-width="1.10566"/>
<rect width="55.2828" height="55.2828" transform="matrix(1 -8.74228e-08 -8.74228e-08 -1 386.846 23.8906)" stroke="#093224" stroke-width="1.10566"/>
<rect width="55.2828" height="55.2828" transform="matrix(1 -8.74228e-08 -8.74228e-08 -1 442.129 23.8906)" stroke="#093224" stroke-width="1.10566"/>
</g>
</g>
</svg>
