<svg width="310" height="254" viewBox="0 0 310 254" fill="none" xmlns="http://www.w3.org/2000/svg">
<g opacity="0.2">
<mask id="mask0_2237_3725" style="mask-type:alpha" maskUnits="userSpaceOnUse" x="128" y="-326" width="552" height="551">
<circle cx="403.834" cy="-50.5" r="275.5" fill="#D9D9D9"/>
</mask>
<g mask="url(#mask0_2237_3725)">
<rect x="118.572" y="-26.4688" width="46.6475" height="46.6475" stroke="#093224" stroke-width="0.93295"/>
<rect x="165.219" y="-26.4688" width="46.6475" height="46.6475" stroke="#093224" stroke-width="0.93295"/>
<rect x="211.867" y="-26.4688" width="46.6475" height="46.6475" stroke="#093224" stroke-width="0.93295"/>
<rect x="258.514" y="-26.4688" width="46.6475" height="46.6475" fill="#093224" fill-opacity="0.05" stroke="#093224" stroke-width="0.93295"/>
<rect x="305.162" y="-26.4688" width="46.6475" height="46.6475" stroke="#093224" stroke-width="0.93295"/>
<rect x="118.572" y="20.1797" width="46.6475" height="46.6475" stroke="#093224" stroke-width="0.93295"/>
<rect x="165.219" y="20.1797" width="46.6475" height="46.6475" stroke="#093224" stroke-width="0.93295"/>
<rect x="211.867" y="20.1797" width="46.6475" height="46.6475" stroke="#093224" stroke-width="0.93295"/>
<rect x="258.514" y="20.1797" width="46.6475" height="46.6475" stroke="#093224" stroke-width="0.93295"/>
<rect x="305.162" y="20.1797" width="46.6475" height="46.6475" stroke="#093224" stroke-width="0.93295"/>
<rect x="118.572" y="66.8262" width="46.6475" height="46.6475" stroke="#093224" stroke-width="0.93295"/>
<rect x="165.219" y="66.8262" width="46.6475" height="46.6475" stroke="#093224" stroke-width="0.93295"/>
<rect x="211.867" y="66.8262" width="46.6475" height="46.6475" stroke="#093224" stroke-width="0.93295"/>
<rect x="258.514" y="66.8262" width="46.6475" height="46.6475" stroke="#093224" stroke-width="0.93295"/>
<rect x="305.162" y="66.8262" width="46.6475" height="46.6475" stroke="#093224" stroke-width="0.93295"/>
<rect x="118.572" y="113.477" width="46.6475" height="46.6475" stroke="#093224" stroke-width="0.93295"/>
<rect x="165.219" y="113.477" width="46.6475" height="46.6475" stroke="#093224" stroke-width="0.93295"/>
<rect x="211.867" y="113.477" width="46.6475" height="46.6475" stroke="#093224" stroke-width="0.93295"/>
<rect x="258.514" y="113.477" width="46.6475" height="46.6475" stroke="#093224" stroke-width="0.93295"/>
<rect x="305.162" y="113.477" width="46.6475" height="46.6475" stroke="#093224" stroke-width="0.93295"/>
<rect x="118.572" y="160.121" width="46.6475" height="46.6475" stroke="#093224" stroke-width="0.93295"/>
<rect x="165.219" y="160.121" width="46.6475" height="46.6475" stroke="#093224" stroke-width="0.93295"/>
<rect x="211.867" y="160.121" width="46.6475" height="46.6475" stroke="#093224" stroke-width="0.93295"/>
<rect x="258.514" y="160.121" width="46.6475" height="46.6475" stroke="#093224" stroke-width="0.93295"/>
<rect x="305.162" y="160.121" width="46.6475" height="46.6475" stroke="#093224" stroke-width="0.93295"/>
<rect x="118.572" y="206.771" width="46.6475" height="46.6475" stroke="#093224" stroke-width="0.93295"/>
<rect x="165.219" y="206.771" width="46.6475" height="46.6475" stroke="#093224" stroke-width="0.93295"/>
<rect x="211.867" y="206.771" width="46.6475" height="46.6475" stroke="#093224" stroke-width="0.93295"/>
<rect x="258.514" y="206.771" width="46.6475" height="46.6475" stroke="#093224" stroke-width="0.93295"/>
<rect x="305.162" y="206.771" width="46.6475" height="46.6475" stroke="#093224" stroke-width="0.93295"/>
</g>
</g>
</svg>
