<svg width="6" height="8" viewBox="0 0 6 8" fill="none" xmlns="http://www.w3.org/2000/svg">
<path d="M0.000441254 6.80744L0.000441499 1.19411C0.000120597 0.972503 0.0625653 0.755334 0.180547 0.567743C0.29853 0.380151 0.467225 0.229806 0.667108 0.134112C0.904269 0.0220899 1.16813 -0.0210562 1.42862 0.00958975C1.68911 0.0402357 1.93575 0.143441 2.14044 0.307445L5.54044 3.11411C5.66753 3.22426 5.76945 3.36043 5.83931 3.51341C5.90916 3.66639 5.94531 3.8326 5.94531 4.00078C5.94531 4.16895 5.90916 4.33516 5.83931 4.48814C5.76945 4.64112 5.66753 4.7773 5.54044 4.88744L2.14044 7.69411C1.93575 7.85812 1.68911 7.96132 1.42862 7.99197C1.16813 8.02261 0.904269 7.97947 0.667108 7.86744C0.467225 7.77175 0.298529 7.62141 0.180547 7.43381C0.062565 7.24622 0.000120333 7.02905 0.000441254 6.80744Z" fill="#DFF56B"/>
</svg>
