<svg width="32" height="32" viewBox="0 0 32 32" fill="none" xmlns="http://www.w3.org/2000/svg">
<rect width="32" height="32" rx="16" fill="#DFF56B"/>
<path d="M23.0664 9.14453H8.93359C8.42094 9.14509 7.92945 9.34899 7.56695 9.71148C7.20445 10.074 7.00056 10.5655 7 11.0781V20.9219C7.00056 21.4345 7.20445 21.926 7.56695 22.2885C7.92945 22.651 8.42094 22.8549 8.93359 22.8555H23.0664C23.5791 22.8549 24.0705 22.651 24.433 22.2885C24.7955 21.926 24.9994 21.4345 25 20.9219V11.0781C24.9994 10.5655 24.7955 10.074 24.433 9.71148C24.0705 9.34899 23.5791 9.14509 23.0664 9.14453ZM23.9453 11.0781V20.9219C23.9454 20.9646 23.9422 21.0073 23.9358 21.0495L18.8656 16L23.9358 10.9505C23.9422 10.9927 23.9454 11.0354 23.9453 11.0781ZM23.0664 10.1992C23.1069 10.1994 23.1473 10.2022 23.1873 10.2077L16 17.3651L8.81266 10.2077C8.85274 10.2022 8.89314 10.1994 8.93359 10.1992H23.0664ZM8.06418 21.0495C8.05782 21.0073 8.05465 20.9646 8.05469 20.9219V11.0781C8.05465 11.0354 8.05782 10.9927 8.06418 10.9505L13.1344 16L8.06418 21.0495ZM8.93359 21.8008C8.89314 21.8006 8.85274 21.7978 8.81266 21.7923L13.8818 16.7443L15.628 18.4831C15.7269 18.5814 15.8606 18.6366 16 18.6366C16.1394 18.6366 16.2731 18.5814 16.372 18.4831L18.1182 16.7443L23.1873 21.7923C23.1473 21.7978 23.1069 21.8006 23.0664 21.8008H8.93359Z" fill="#093224"/>
</svg>
