<svg width="32" height="32" viewBox="0 0 32 32" fill="none" xmlns="http://www.w3.org/2000/svg">
<rect width="32" height="32" rx="16" fill="#DFF56B"/>
<g clip-path="url(#clip0_2061_453)">
<path d="M23.4537 8.44245C21.4522 6.48145 18.2176 6.52547 16.2431 8.5406L13.4386 11.403C13.1141 11.7341 12.84 12.1019 12.6198 12.4968C12.0213 12.7591 11.9055 12.8632 11.4451 13.3365C11.4013 13.3814 11.3536 13.4304 11.3011 13.484L8.49659 16.3464C7.54422 17.3185 7.02452 18.6054 7.03331 19.9702C7.0421 21.3366 7.57921 22.6106 8.54572 23.5576C9.52865 24.5206 10.8088 25.0001 12.0912 25.0001C13.4201 25 14.7515 24.485 15.7563 23.4594L18.5609 20.5971C18.8942 20.2569 19.1703 19.8819 19.3899 19.4842C20.0065 19.1637 20.0908 19.0947 20.6535 18.5591L20.6852 18.5289C20.6897 18.5247 20.6941 18.5204 20.6984 18.516L23.5028 15.6536C24.4552 14.6816 24.9749 13.3947 24.9661 12.0298C24.9573 10.6635 24.4202 9.38944 23.4537 8.44245ZM13.4877 18.6141C13.849 18.968 14.3076 19.2853 14.805 19.5325L13.2154 21.1549C12.5707 21.8129 11.5162 21.8289 10.8647 21.1906C10.2133 20.5524 10.2078 19.4977 10.8539 18.8383L12.464 17.1818C12.7152 17.7098 13.0591 18.1942 13.4877 18.6141ZM15.0028 22.7211C14.2465 23.4929 13.2328 23.9263 12.1484 23.9415C11.0647 23.9575 10.0481 23.5527 9.28401 22.804C8.51987 22.0553 8.09515 21.0465 8.08822 19.9635C8.08126 18.8789 8.49389 17.8566 9.25011 17.0848L12.0285 14.2491C11.9471 14.7969 11.9582 15.4647 12.0853 16.0579L10.099 18.1014C9.04721 19.175 9.05951 20.8988 10.1265 21.9442C10.6507 22.4578 11.3333 22.7136 12.0171 22.7135C12.7249 22.7135 13.434 22.4392 13.969 21.8932L16.0714 19.7474C19.4084 16.9448 16.977 14.3813 15.5019 14.3004C15.5769 14.1554 15.6744 14.019 15.7946 13.8963L16.3138 13.3664C19.2124 14.1003 19.7572 17.9514 17.8073 19.8588L15.0028 22.7211ZM16.4627 16.6618C16.4547 16.6582 16.4466 16.6547 16.4384 16.6514C16.2097 16.5597 15.9677 16.4048 15.8069 16.2471C15.5486 15.9941 15.3923 15.6756 15.3373 15.3424C15.4462 15.3577 15.5504 15.3758 15.6306 15.3919C15.8435 15.4608 15.993 15.5573 16.1926 15.7529C16.4716 16.0263 16.6317 16.376 16.6734 16.7383C16.5381 16.6952 16.463 16.662 16.4627 16.6618ZM18.5117 13.3859C18.1466 13.0283 17.6853 12.7415 17.1351 12.5281L18.784 10.8452C19.4287 10.1872 20.4832 10.1711 21.1347 10.8094C21.7861 11.4477 21.7916 12.5023 21.1455 13.1618L19.5353 14.8182C19.2875 14.2978 18.9463 13.8118 18.5117 13.3859ZM22.7492 14.9153L19.9732 17.7487C20.0607 17.1476 20.0413 16.5347 19.9152 15.9409L21.9005 13.8986C22.9522 12.8251 22.9399 11.1013 21.873 10.0559C20.806 9.01054 19.0823 9.03343 18.0305 10.1068C17.4891 10.6594 15.5356 12.6531 15.041 13.158C13.9892 14.2315 14.0016 15.9554 15.0685 17.0007C15.3273 17.2542 15.6792 17.4819 16.0354 17.6264C16.0838 17.6478 16.2301 17.709 16.456 17.7751C16.3876 17.892 16.304 18.0027 16.2049 18.1038L15.591 18.7304C15.074 18.5197 14.5794 18.2067 14.2261 17.8606C13.4619 17.1119 13.0373 16.1031 13.0303 15.0201C13.0234 13.9355 13.436 12.9132 14.1922 12.1414L16.9967 9.27903C17.7529 8.50719 18.7666 8.07378 19.8511 8.05859C20.9333 8.04396 21.9513 8.44741 22.7155 9.19611C23.4796 9.94484 23.9043 10.9536 23.9112 12.0366C23.9182 13.1211 23.5055 14.1435 22.7492 14.9153Z" fill="#093224"/>
</g>
<defs>
<clipPath id="clip0_2061_453">
<rect width="18" height="18" fill="white" transform="translate(7 7)"/>
</clipPath>
</defs>
</svg>
