<svg width="32" height="32" viewBox="0 0 32 32" fill="none" xmlns="http://www.w3.org/2000/svg">
<rect width="32" height="32" rx="16" fill="#DFF56B"/>
<g clip-path="url(#clip0_2061_447)">
<path d="M16 7.8623C11.7625 7.8623 7.1875 8.7248 7.1875 10.5998V12.4373C7.1875 12.8123 7.3375 13.1873 7.6375 13.4123C7.9 13.6373 8.2 13.7498 8.5375 13.6748L11.1625 13.3373C11.7625 13.2623 12.2125 12.6998 12.2125 12.0623V11.1998C12.625 11.0123 13.9375 10.7873 16.0375 10.7873C18.1375 10.7873 19.45 11.0498 19.8625 11.1998V12.0623C19.8625 12.6998 20.3125 13.2623 20.9125 13.3373L23.5375 13.6748H23.6875C23.95 13.6748 24.2125 13.5623 24.4375 13.3748C24.7 13.1498 24.8875 12.7748 24.8875 12.3998V10.5998C24.8125 8.7248 20.2375 7.8623 16 7.8623ZM23.6875 12.3998C23.6875 12.5123 23.65 12.5498 23.6125 12.5498L20.9875 12.2123C20.9875 12.2123 20.9125 12.1373 20.9125 12.0623V10.9748C20.9125 10.0748 19.2625 9.6248 15.9625 9.6248C12.6625 9.6248 11.0125 10.0748 11.0125 10.9748V12.0623C11.0125 12.1373 10.975 12.2123 10.9375 12.2123L8.3125 12.5498C8.3125 12.5498 8.2375 12.5123 8.2375 12.3998V10.5998C8.2375 10.1498 10.9375 8.9873 15.925 8.9873C20.9125 8.9873 23.6125 10.1123 23.6125 10.5998V12.3998H23.6875Z" fill="#093224"/>
<path d="M13.4501 11.3496V12.6996C11.2001 13.8621 9.43757 16.5246 8.65007 19.8996C8.38757 21.0621 8.65007 22.2996 9.32507 23.1246C9.85007 23.7621 10.5251 24.1371 11.2751 24.1371H20.7251C21.4751 24.1371 22.1501 23.7996 22.6751 23.1246C23.3501 22.2621 23.6126 21.0246 23.3501 19.8996C22.5626 16.5246 20.8001 13.8621 18.5876 12.6996V11.3496H17.4626V12.4746H14.6126V11.3496H13.4501ZM22.2251 20.1621C22.4126 20.9871 22.2251 21.8496 21.7751 22.4496C21.4751 22.8246 21.1001 23.0121 20.7251 23.0121H11.2751C10.9001 23.0121 10.5251 22.8246 10.2251 22.4496C9.73757 21.8496 9.58757 20.9871 9.77507 20.1621C10.4876 17.0121 12.1376 14.5371 14.1626 13.5996H17.8751C19.8626 14.5371 21.5126 16.9746 22.2251 20.1621Z" fill="#093224"/>
<path d="M12.7373 16.6372H14.1998V17.7622H12.7373V16.6372Z" fill="#093224"/>
<path d="M15.25 16.6372H16.7125V17.7622H15.25V16.6372Z" fill="#093224"/>
<path d="M17.7998 16.6372H19.2623V17.7622H17.7998V16.6372Z" fill="#093224"/>
<path d="M12.7373 18.625H14.1998V19.75H12.7373V18.625Z" fill="#093224"/>
<path d="M15.25 18.625H16.7125V19.75H15.25V18.625Z" fill="#093224"/>
<path d="M17.7998 18.625H19.2623V19.75H17.7998V18.625Z" fill="#093224"/>
<path d="M12.7373 20.6123H14.1998V21.7373H12.7373V20.6123Z" fill="#093224"/>
<path d="M15.25 20.6123H16.7125V21.7373H15.25V20.6123Z" fill="#093224"/>
<path d="M17.7998 20.6123H19.2623V21.7373H17.7998V20.6123Z" fill="#093224"/>
</g>
<defs>
<clipPath id="clip0_2061_447">
<rect width="18" height="18" fill="white" transform="translate(7 7)"/>
</clipPath>
</defs>
</svg>
