<svg width="356" height="135" viewBox="0 0 356 135" fill="none" xmlns="http://www.w3.org/2000/svg">
<path opacity="0.5" d="M23.7333 0V13.8462M23.7333 13.8462H0M23.7333 13.8462V37.5824M23.7333 13.8462H47.4667M47.4667 0V13.8462M47.4667 13.8462V37.5824M47.4667 13.8462H71.2M71.2 0V13.8462M71.2 13.8462V37.5824M71.2 13.8462H94.9333M94.9333 0V13.8462M94.9333 13.8462V37.5824M94.9333 13.8462H118.667M118.667 0V13.8462M118.667 13.8462V37.5824M118.667 13.8462H142.4M142.4 0V13.8462M142.4 13.8462V37.5824M142.4 13.8462H166.133M166.133 0V13.8462M166.133 13.8462V37.5824M166.133 13.8462H189.867M189.867 0V13.8462M189.867 13.8462V37.5824M189.867 13.8462H213.6M213.6 0V13.8462M213.6 13.8462V37.5824M213.6 13.8462H237.333M237.333 0V13.8462M237.333 13.8462V37.5824M237.333 13.8462H261.067M261.067 0V13.8462M261.067 13.8462V37.5824M261.067 13.8462H284.8M284.8 0V13.8462M284.8 13.8462V37.5824M284.8 13.8462H308.533M308.533 0V13.8462M308.533 13.8462V37.5824M308.533 13.8462H332.267M332.267 0V13.8462M332.267 13.8462H356M332.267 13.8462V37.5824M23.7333 37.5824H0M23.7333 37.5824V61.3187M23.7333 37.5824H47.4667M47.4667 37.5824V61.3187M47.4667 37.5824H71.2M71.2 37.5824V61.3187M71.2 37.5824H94.9333M94.9333 37.5824V61.3187M94.9333 37.5824H118.667M118.667 37.5824V61.3187M118.667 37.5824H142.4M142.4 37.5824V61.3187M142.4 37.5824H166.133M166.133 37.5824V61.3187M166.133 37.5824H189.867M189.867 37.5824V61.3187M189.867 37.5824H213.6M213.6 37.5824V61.3187M213.6 37.5824H237.333M237.333 37.5824V61.3187M237.333 37.5824H261.067M261.067 37.5824V61.3187M261.067 37.5824H284.8M284.8 37.5824V61.3187M284.8 37.5824H308.533M308.533 37.5824V61.3187M308.533 37.5824H332.267M332.267 37.5824H356M332.267 37.5824V61.3187M23.7333 61.3187H0M23.7333 61.3187V85.0549M23.7333 61.3187H47.4667M47.4667 61.3187V85.0549M47.4667 61.3187H71.2M71.2 61.3187V85.0549M71.2 61.3187H94.9333M94.9333 61.3187V85.0549M94.9333 61.3187H118.667M118.667 61.3187V85.0549M118.667 61.3187H142.4M142.4 61.3187V85.0549M142.4 61.3187H166.133M166.133 61.3187V85.0549M166.133 61.3187H189.867M189.867 61.3187V85.0549M189.867 61.3187H213.6M213.6 61.3187V85.0549M213.6 61.3187H237.333M237.333 61.3187V85.0549M237.333 61.3187H261.067M261.067 61.3187V85.0549M261.067 61.3187H284.8M284.8 61.3187V85.0549M284.8 61.3187H308.533M308.533 61.3187V85.0549M308.533 61.3187H332.267M332.267 61.3187H356M332.267 61.3187V85.0549M23.7333 85.0549H0M23.7333 85.0549V108.791M23.7333 85.0549H47.4667M47.4667 85.0549V108.791M47.4667 85.0549H71.2M71.2 85.0549V108.791M71.2 85.0549H94.9333M94.9333 85.0549V108.791M94.9333 85.0549H118.667M118.667 85.0549V108.791M118.667 85.0549H142.4M142.4 85.0549V108.791M142.4 85.0549H166.133M166.133 85.0549V108.791M166.133 85.0549H189.867M189.867 85.0549V108.791M189.867 85.0549H213.6M213.6 85.0549V108.791M213.6 85.0549H237.333M237.333 85.0549V108.791M237.333 85.0549H261.067M261.067 85.0549V108.791M261.067 85.0549H284.8M284.8 85.0549V108.791M284.8 85.0549H308.533M308.533 85.0549V108.791M308.533 85.0549H332.267M332.267 85.0549H356M332.267 85.0549V108.791M23.7333 108.791V135M23.7333 108.791H0M23.7333 108.791H47.4667M47.4667 108.791V135M47.4667 108.791H71.2M71.2 108.791V135M71.2 108.791H94.9333M94.9333 108.791V135M94.9333 108.791H118.667M118.667 108.791V135M118.667 108.791H142.4M142.4 108.791V135M142.4 108.791H166.133M166.133 108.791V135M166.133 108.791H189.867M189.867 108.791V135M189.867 108.791H213.6M213.6 108.791V135M213.6 108.791H237.333M237.333 108.791V135M237.333 108.791H261.067M261.067 108.791V135M261.067 108.791H284.8M284.8 108.791V135M284.8 108.791H308.533M308.533 108.791V135M308.533 108.791H332.267M332.267 108.791V135M332.267 108.791H356" stroke="url(#paint0_radial_2061_563)" stroke-width="0.5"/>
<defs>
<radialGradient id="paint0_radial_2061_563" cx="0" cy="0" r="1" gradientUnits="userSpaceOnUse" gradientTransform="translate(178 61.3187) rotate(90) scale(73.6813 184.181)">
<stop stop-color="#093224"/>
<stop offset="1" stop-color="#093224" stop-opacity="0"/>
</radialGradient>
</defs>
</svg>
