<svg width="306" height="254" viewBox="0 0 306 254" fill="none" xmlns="http://www.w3.org/2000/svg">
<g opacity="0.2">
<mask id="mask0_2001_18758" style="mask-type:alpha" maskUnits="userSpaceOnUse" x="127" y="-326" width="552" height="551">
<circle cx="403" cy="-50.5" r="275.5" fill="#D9D9D9"/>
</mask>
<g mask="url(#mask0_2001_18758)">
<rect x="117.738" y="-26.4688" width="46.6475" height="46.6475" stroke="#093224" stroke-width="0.93295"/>
<rect x="164.385" y="-26.4688" width="46.6475" height="46.6475" stroke="#093224" stroke-width="0.93295"/>
<rect x="211.033" y="-26.4688" width="46.6475" height="46.6475" stroke="#093224" stroke-width="0.93295"/>
<rect x="257.68" y="-26.4688" width="46.6475" height="46.6475" fill="#093224" fill-opacity="0.05" stroke="#093224" stroke-width="0.93295"/>
<rect x="304.328" y="-26.4688" width="46.6475" height="46.6475" stroke="#093224" stroke-width="0.93295"/>
<rect x="117.737" y="20.1807" width="46.6475" height="46.6475" stroke="#093224" stroke-width="0.93295"/>
<rect x="164.385" y="20.1807" width="46.6475" height="46.6475" stroke="#093224" stroke-width="0.93295"/>
<rect x="211.032" y="20.1807" width="46.6475" height="46.6475" stroke="#093224" stroke-width="0.93295"/>
<rect x="257.68" y="20.1807" width="46.6475" height="46.6475" stroke="#093224" stroke-width="0.93295"/>
<rect x="304.327" y="20.1807" width="46.6475" height="46.6475" stroke="#093224" stroke-width="0.93295"/>
<rect x="117.737" y="66.8262" width="46.6475" height="46.6475" stroke="#093224" stroke-width="0.93295"/>
<rect x="164.385" y="66.8262" width="46.6475" height="46.6475" stroke="#093224" stroke-width="0.93295"/>
<rect x="211.032" y="66.8262" width="46.6475" height="46.6475" stroke="#093224" stroke-width="0.93295"/>
<rect x="257.68" y="66.8262" width="46.6475" height="46.6475" stroke="#093224" stroke-width="0.93295"/>
<rect x="304.327" y="66.8262" width="46.6475" height="46.6475" stroke="#093224" stroke-width="0.93295"/>
<rect x="117.737" y="113.476" width="46.6475" height="46.6475" stroke="#093224" stroke-width="0.93295"/>
<rect x="164.385" y="113.476" width="46.6475" height="46.6475" stroke="#093224" stroke-width="0.93295"/>
<rect x="211.033" y="113.476" width="46.6475" height="46.6475" stroke="#093224" stroke-width="0.93295"/>
<rect x="257.68" y="113.476" width="46.6475" height="46.6475" stroke="#093224" stroke-width="0.93295"/>
<rect x="304.328" y="113.476" width="46.6475" height="46.6475" stroke="#093224" stroke-width="0.93295"/>
<rect x="117.737" y="160.121" width="46.6475" height="46.6475" stroke="#093224" stroke-width="0.93295"/>
<rect x="164.385" y="160.121" width="46.6475" height="46.6475" stroke="#093224" stroke-width="0.93295"/>
<rect x="211.033" y="160.121" width="46.6475" height="46.6475" stroke="#093224" stroke-width="0.93295"/>
<rect x="257.68" y="160.121" width="46.6475" height="46.6475" stroke="#093224" stroke-width="0.93295"/>
<rect x="304.328" y="160.121" width="46.6475" height="46.6475" stroke="#093224" stroke-width="0.93295"/>
<rect x="117.737" y="206.771" width="46.6475" height="46.6475" stroke="#093224" stroke-width="0.93295"/>
<rect x="164.385" y="206.771" width="46.6475" height="46.6475" stroke="#093224" stroke-width="0.93295"/>
<rect x="211.032" y="206.771" width="46.6475" height="46.6475" stroke="#093224" stroke-width="0.93295"/>
<rect x="257.68" y="206.771" width="46.6475" height="46.6475" stroke="#093224" stroke-width="0.93295"/>
<rect x="304.327" y="206.771" width="46.6475" height="46.6475" stroke="#093224" stroke-width="0.93295"/>
</g>
</g>
</svg>
