<svg width="170" height="110" viewBox="0 0 170 110" fill="none" xmlns="http://www.w3.org/2000/svg">
<path d="M44.1643 109.52C36.1589 109.52 28.8123 107.291 22.1243 102.832C15.5376 98.272 10.2683 91.888 6.31625 83.68C2.36425 75.472 0.38825 65.7947 0.38825 54.648C0.38825 43.5013 2.31358 33.8747 6.16425 25.768C10.1163 17.56 15.3856 11.2267 21.9723 6.768C28.5589 2.30933 35.8549 0.0799942 43.8603 0.0799942C51.9669 0.0799942 59.3136 2.30933 65.9003 6.768C72.4869 11.2267 77.7056 17.56 81.5563 25.768C85.5083 33.8747 87.4843 43.552 87.4843 54.8C87.4843 65.9467 85.5083 75.624 81.5563 83.832C77.7056 92.04 72.4869 98.3733 65.9003 102.832C59.4149 107.291 52.1696 109.52 44.1643 109.52ZM43.8603 93.104C49.1296 93.104 53.6896 91.6853 57.5403 88.848C61.3909 86.0107 64.3803 81.7547 66.5083 76.08C68.7376 70.4053 69.8523 63.2613 69.8523 54.648C69.8523 46.136 68.7376 39.0427 66.5083 33.368C64.3803 27.6933 61.3403 23.488 57.3883 20.752C53.5376 17.9147 49.0283 16.496 43.8603 16.496C38.6923 16.496 34.1323 17.9147 30.1803 20.752C26.3296 23.488 23.3403 27.6933 21.2123 33.368C19.0843 38.9413 18.0203 46.0347 18.0203 54.648C18.0203 63.2613 19.0843 70.4053 21.2123 76.08C23.3403 81.7547 26.3296 86.0107 30.1803 88.848C34.1323 91.6853 38.6923 93.104 43.8603 93.104ZM131.15 109.52C124.056 109.52 117.622 108.253 111.846 105.72C106.171 103.085 101.358 99.2853 97.4058 94.32L109.262 82.464C111.39 85.7067 114.379 88.2907 118.23 90.216C122.08 92.1413 126.286 93.104 130.846 93.104C135.203 93.104 138.952 92.2933 142.094 90.672C145.235 89.0507 147.667 86.7707 149.39 83.832C151.214 80.8933 152.126 77.4987 152.126 73.648C152.126 69.5947 151.214 66.1493 149.39 63.312C147.667 60.4747 145.134 58.296 141.79 56.776C138.547 55.1547 134.595 54.344 129.934 54.344C128.11 54.344 126.235 54.496 124.31 54.8C122.384 55.0027 120.662 55.3573 119.142 55.864L126.894 45.832C129.022 45.0213 131.251 44.3627 133.582 43.856C136.014 43.248 138.344 42.944 140.574 42.944C146.046 42.944 150.96 44.2613 155.318 46.896C159.776 49.5307 163.272 53.2293 165.806 57.992C168.44 62.6533 169.758 68.176 169.758 74.56C169.758 81.4507 168.136 87.5307 164.894 92.8C161.651 98.0693 157.142 102.173 151.366 105.112C145.59 108.051 138.851 109.52 131.15 109.52ZM119.142 55.864V45.528L147.566 12.392L168.542 11.936L138.902 45.984L119.142 55.864ZM102.726 17.256V1.59999H168.542V11.936L153.494 17.256H102.726Z" fill="url(#paint0_linear_2268_3303)"/>
<defs>
<linearGradient id="paint0_linear_2268_3303" x1="85" y1="-44" x2="85" y2="148" gradientUnits="userSpaceOnUse">
<stop stop-color="#DFF56B"/>
<stop offset="0.702773" stop-color="#DFF56B" stop-opacity="0"/>
</linearGradient>
</defs>
</svg>
