<svg width="171" height="110" viewBox="0 0 171 110" fill="none" xmlns="http://www.w3.org/2000/svg">
<path d="M44.008 109.52C36.0027 109.52 28.656 107.291 21.968 102.832C15.3813 98.272 10.112 91.888 6.16 83.68C2.208 75.472 0.232 65.7947 0.232 54.648C0.232 43.5013 2.15733 33.8747 6.008 25.768C9.96 17.56 15.2293 11.2267 21.816 6.768C28.4027 2.30933 35.6987 0.0799942 43.704 0.0799942C51.8107 0.0799942 59.1573 2.30933 65.744 6.768C72.3307 11.2267 77.5493 17.56 81.4 25.768C85.352 33.8747 87.328 43.552 87.328 54.8C87.328 65.9467 85.352 75.624 81.4 83.832C77.5493 92.04 72.3307 98.3733 65.744 102.832C59.2587 107.291 52.0133 109.52 44.008 109.52ZM43.704 93.104C48.9733 93.104 53.5333 91.6853 57.384 88.848C61.2347 86.0107 64.224 81.7547 66.352 76.08C68.5813 70.4053 69.696 63.2613 69.696 54.648C69.696 46.136 68.5813 39.0427 66.352 33.368C64.224 27.6933 61.184 23.488 57.232 20.752C53.3813 17.9147 48.872 16.496 43.704 16.496C38.536 16.496 33.976 17.9147 30.024 20.752C26.1733 23.488 23.184 27.6933 21.056 33.368C18.928 38.9413 17.864 46.0347 17.864 54.648C17.864 63.2613 18.928 70.4053 21.056 76.08C23.184 81.7547 26.1733 86.0107 30.024 88.848C33.976 91.6853 38.536 93.104 43.704 93.104ZM97.8576 97.664L137.074 56.016C140.316 52.5707 142.951 49.48 144.978 46.744C147.004 44.008 148.474 41.424 149.386 38.992C150.298 36.56 150.754 34.0773 150.754 31.544C150.754 26.7813 149.183 23.0827 146.042 20.448C143.002 17.712 139.1 16.344 134.338 16.344C129.271 16.344 124.812 17.6107 120.962 20.144C117.111 22.6773 113.666 26.6293 110.626 32L98.4656 21.968C102.62 14.7733 107.738 9.352 113.818 5.70399C119.898 1.95466 126.94 0.0799942 134.946 0.0799942C141.532 0.0799942 147.308 1.39733 152.274 4.032C157.239 6.66666 161.09 10.3653 163.826 15.128C166.562 19.7893 167.93 25.2107 167.93 31.392C167.93 35.8507 167.372 39.8533 166.258 43.4C165.244 46.8453 163.471 50.3413 160.938 53.888C158.404 57.3333 154.908 61.3867 150.45 66.048L120.354 97.208L97.8576 97.664ZM97.8576 108V97.664L112.906 92.344H170.058V108H97.8576Z" fill="url(#paint0_linear_2268_3296)"/>
<defs>
<linearGradient id="paint0_linear_2268_3296" x1="654" y1="-44" x2="654" y2="148" gradientUnits="userSpaceOnUse">
<stop stop-color="#DFF56B"/>
<stop offset="0.702773" stop-color="#DFF56B" stop-opacity="0"/>
</linearGradient>
</defs>
</svg>
