<svg width="331" height="241" viewBox="0 0 331 241" fill="none" xmlns="http://www.w3.org/2000/svg">
<g opacity="0.2">
<mask id="mask0_2237_4351" style="mask-type:alpha" maskUnits="userSpaceOnUse" x="87" y="-339" width="551" height="551">
<circle cx="362.5" cy="-63.5" r="275.5" fill="#D9D9D9"/>
</mask>
<g mask="url(#mask0_2237_4351)">
<rect x="77.2383" y="-39.4688" width="46.6475" height="46.6475" stroke="#093224" stroke-width="0.93295"/>
<rect x="123.885" y="-39.4688" width="46.6475" height="46.6475" stroke="#093224" stroke-width="0.93295"/>
<rect x="170.533" y="-39.4688" width="46.6475" height="46.6475" stroke="#093224" stroke-width="0.93295"/>
<rect x="217.18" y="-39.4688" width="46.6475" height="46.6475" fill="#093224" fill-opacity="0.05" stroke="#093224" stroke-width="0.93295"/>
<rect x="263.828" y="-39.4688" width="46.6475" height="46.6475" stroke="#093224" stroke-width="0.93295"/>
<rect x="310.475" y="-39.4688" width="46.6475" height="46.6475" stroke="#093224" stroke-width="0.93295"/>
<rect x="77.2383" y="7.17969" width="46.6475" height="46.6475" stroke="#093224" stroke-width="0.93295"/>
<rect x="123.885" y="7.17969" width="46.6475" height="46.6475" stroke="#093224" stroke-width="0.93295"/>
<rect x="170.533" y="7.17969" width="46.6475" height="46.6475" stroke="#093224" stroke-width="0.93295"/>
<rect x="217.18" y="7.17969" width="46.6475" height="46.6475" stroke="#093224" stroke-width="0.93295"/>
<rect x="263.828" y="7.17969" width="46.6475" height="46.6475" stroke="#093224" stroke-width="0.93295"/>
<rect x="310.475" y="7.17969" width="46.6475" height="46.6475" stroke="#093224" stroke-width="0.93295"/>
<rect x="77.2383" y="53.8262" width="46.6475" height="46.6475" stroke="#093224" stroke-width="0.93295"/>
<rect x="123.885" y="53.8262" width="46.6475" height="46.6475" stroke="#093224" stroke-width="0.93295"/>
<rect x="170.533" y="53.8262" width="46.6475" height="46.6475" stroke="#093224" stroke-width="0.93295"/>
<rect x="217.18" y="53.8262" width="46.6475" height="46.6475" stroke="#093224" stroke-width="0.93295"/>
<rect x="263.828" y="53.8262" width="46.6475" height="46.6475" stroke="#093224" stroke-width="0.93295"/>
<rect x="310.475" y="53.8262" width="46.6475" height="46.6475" stroke="#093224" stroke-width="0.93295"/>
<rect x="77.2383" y="100.477" width="46.6475" height="46.6475" stroke="#093224" stroke-width="0.93295"/>
<rect x="123.885" y="100.477" width="46.6475" height="46.6475" stroke="#093224" stroke-width="0.93295"/>
<rect x="170.533" y="100.477" width="46.6475" height="46.6475" stroke="#093224" stroke-width="0.93295"/>
<rect x="217.18" y="100.477" width="46.6475" height="46.6475" stroke="#093224" stroke-width="0.93295"/>
<rect x="263.828" y="100.477" width="46.6475" height="46.6475" stroke="#093224" stroke-width="0.93295"/>
<rect x="310.475" y="100.477" width="46.6475" height="46.6475" stroke="#093224" stroke-width="0.93295"/>
<rect x="77.2383" y="147.121" width="46.6475" height="46.6475" stroke="#093224" stroke-width="0.93295"/>
<rect x="123.885" y="147.121" width="46.6475" height="46.6475" stroke="#093224" stroke-width="0.93295"/>
<rect x="170.533" y="147.121" width="46.6475" height="46.6475" stroke="#093224" stroke-width="0.93295"/>
<rect x="217.18" y="147.121" width="46.6475" height="46.6475" stroke="#093224" stroke-width="0.93295"/>
<rect x="263.828" y="147.121" width="46.6475" height="46.6475" stroke="#093224" stroke-width="0.93295"/>
<rect x="310.475" y="147.121" width="46.6475" height="46.6475" stroke="#093224" stroke-width="0.93295"/>
<rect x="77.2383" y="193.771" width="46.6475" height="46.6475" stroke="#093224" stroke-width="0.93295"/>
<rect x="123.885" y="193.771" width="46.6475" height="46.6475" stroke="#093224" stroke-width="0.93295"/>
<rect x="170.533" y="193.771" width="46.6475" height="46.6475" stroke="#093224" stroke-width="0.93295"/>
<rect x="217.18" y="193.771" width="46.6475" height="46.6475" stroke="#093224" stroke-width="0.93295"/>
<rect x="263.828" y="193.771" width="46.6475" height="46.6475" stroke="#093224" stroke-width="0.93295"/>
<rect x="310.475" y="193.771" width="46.6475" height="46.6475" stroke="#093224" stroke-width="0.93295"/>
</g>
</g>
</svg>
