<svg width="500" height="100" viewBox="0 0 500 100" fill="none" xmlns="http://www.w3.org/2000/svg">
<path d="M109.951 43.3188C108.428 42.5305 106.698 42.1325 104.754 42.1325H92.9824V73.7884H97.2684V61.4735H104.746C106.69 61.4735 108.428 61.0755 109.943 60.2872C111.497 59.4683 112.714 58.3432 113.594 56.9119C114.505 55.45 114.964 53.7509 114.964 51.7992C114.964 49.8475 114.505 48.1177 113.594 46.6865C112.714 45.2246 111.497 44.0995 109.943 43.3112L109.951 43.3188ZM109.813 54.9525C109.292 55.8327 108.565 56.5216 107.624 57.0037C106.713 57.4936 105.665 57.7308 104.478 57.7308H97.2684V45.8675H104.478C105.665 45.8675 106.713 46.1125 107.624 46.5946C108.565 47.0845 109.3 47.7657 109.813 48.6459C110.364 49.526 110.632 50.5746 110.632 51.7915C110.632 53.0085 110.356 54.057 109.813 54.9372V54.9525Z" fill="#1F2420"/>
<path d="M132.866 52.2661C131.986 51.8681 130.999 51.6768 129.904 51.6768C127.501 51.6768 125.664 52.4957 124.386 54.1413C124.256 54.3097 124.141 54.4857 124.018 54.6617V52.136H119.916V73.8037H124.018V61.4429C124.018 59.4683 124.508 57.9911 125.48 57.0191C126.452 56.047 127.7 55.5572 129.223 55.5572C129.95 55.5572 130.593 55.6644 131.136 55.8787C131.687 56.093 132.185 56.445 132.644 56.9272L135.338 54.1413C134.58 53.2611 133.754 52.6335 132.874 52.2737L132.866 52.2661Z" fill="#1F2420"/>
<path d="M153.11 53.1769C151.403 52.1742 149.505 51.6691 147.408 51.6691C145.311 51.6691 143.367 52.1742 141.66 53.1769C139.953 54.1795 138.606 55.5342 137.604 57.2333C136.601 58.9095 136.096 60.7923 136.096 62.8895C136.096 64.9866 136.601 66.946 137.604 68.6834C138.606 70.3901 139.961 71.7372 141.66 72.7398C143.359 73.7425 145.28 74.2476 147.408 74.2476C149.536 74.2476 151.403 73.7425 153.11 72.7398C154.84 71.7372 156.21 70.3825 157.213 68.6834C158.215 66.9536 158.72 65.0172 158.72 62.8895C158.72 60.7617 158.215 58.8942 157.213 57.1874C156.21 55.4806 154.84 54.1489 153.11 53.1769ZM153.562 66.724C152.957 67.8185 152.115 68.6833 151.051 69.3263C149.987 69.9615 148.771 70.283 147.4 70.283C146.03 70.283 144.814 69.9615 143.75 69.3263C142.686 68.691 141.852 67.8185 141.239 66.724C140.635 65.5989 140.328 64.3207 140.328 62.8895C140.328 61.4582 140.635 60.2413 141.239 59.1468C141.844 58.0523 142.686 57.2027 143.75 56.5904C144.814 55.9552 146.03 55.6337 147.4 55.6337C148.771 55.6337 149.972 55.9552 151.005 56.5904C152.069 57.1951 152.904 58.0523 153.516 59.1468C154.151 60.2413 154.473 61.4888 154.473 62.8895C154.473 64.2901 154.166 65.5989 153.562 66.724Z" fill="#1F2420"/>
<path d="M199.339 42.1325L191.723 66.0734L184.238 42.1325H181.138L173.668 66.0046L166.083 42.1325H161.797L172.145 73.7961H175.207L182.684 49.9087L190.216 73.7961H193.269L203.579 42.1325H199.339Z" fill="#1F2420"/>
<path d="M220.371 53.1769C218.665 52.1742 216.766 51.6691 214.669 51.6691C212.572 51.6691 210.628 52.1742 208.921 53.1769C207.214 54.1795 205.867 55.5342 204.865 57.2333C203.862 58.9095 203.357 60.7923 203.357 62.8895C203.357 64.9866 203.862 66.946 204.865 68.6834C205.867 70.3901 207.222 71.7372 208.921 72.7398C210.62 73.7425 212.542 74.2476 214.669 74.2476C216.797 74.2476 218.665 73.7425 220.371 72.7398C222.101 71.7372 223.471 70.3825 224.474 68.6834C225.476 66.9536 225.981 65.0172 225.981 62.8895C225.981 60.7617 225.476 58.8942 224.474 57.1874C223.471 55.4806 222.101 54.1489 220.371 53.1769ZM220.831 66.724C220.226 67.8185 219.384 68.6833 218.32 69.3263C217.256 69.9615 216.039 70.283 214.669 70.283C213.299 70.283 212.082 69.9615 211.018 69.3263C209.955 68.691 209.12 67.8185 208.508 66.724C207.903 65.5989 207.597 64.3207 207.597 62.8895C207.597 61.4582 207.903 60.2413 208.508 59.1468C209.113 58.0523 209.955 57.2027 211.018 56.5904C212.082 55.9552 213.299 55.6337 214.669 55.6337C216.039 55.6337 217.241 55.9552 218.274 56.5904C219.338 57.1951 220.172 58.0523 220.785 59.1468C221.42 60.2413 221.741 61.4888 221.741 62.8895C221.741 64.2901 221.435 65.5989 220.831 66.724Z" fill="#1F2420"/>
<path d="M243.562 52.2661C242.682 51.8681 241.695 51.6768 240.6 51.6768C238.197 51.6768 236.36 52.4957 235.082 54.1413C234.952 54.3097 234.837 54.4857 234.714 54.6617V52.136H230.612V73.8037H234.714V61.4429C234.714 59.4683 235.204 57.9911 236.176 57.0191C237.148 56.047 238.396 55.5572 239.919 55.5572C240.646 55.5572 241.289 55.6644 241.832 55.8787C242.383 56.093 242.881 56.445 243.34 56.9272L246.034 54.1413C245.277 53.2611 244.45 52.6335 243.57 52.2737L243.562 52.2661Z" fill="#1F2420"/>
<path d="M267.664 52.1283H262.697L253.022 62.3231V41.2217H248.92V73.7961H253.022V63.1114L262.788 73.7961H268.077L257.699 62.5451L267.664 52.1283Z" fill="#1F2420"/>
<path d="M278.333 45.7374C279.06 44.9797 280.078 44.597 281.387 44.597C282.083 44.597 282.68 44.7195 283.163 44.9644C283.652 45.1787 284.089 45.5002 284.487 45.9211L287.181 43.2729C286.423 42.454 285.581 41.8264 284.67 41.4054C283.76 40.9768 282.68 40.7701 281.433 40.7701C279.787 40.7701 278.348 41.1222 277.101 41.8187C275.884 42.5152 274.927 43.4796 274.231 44.6889C273.534 45.8752 273.182 47.2758 273.182 48.8831V52.1206H267.847V55.8633H273.182V73.7884H277.285V55.8633H284.173V52.1206H277.285V48.8831C277.285 47.5437 277.637 46.4951 278.333 45.7374Z" fill="#1F2420"/>
<path d="M302.649 53.1769C300.942 52.1742 299.044 51.6691 296.947 51.6691C294.85 51.6691 292.906 52.1742 291.199 53.1769C289.492 54.1795 288.145 55.5342 287.143 57.2333C286.14 58.9095 285.635 60.7923 285.635 62.8895C285.635 64.9866 286.14 66.946 287.143 68.6834C288.145 70.3901 289.5 71.7372 291.199 72.7398C292.898 73.7425 294.819 74.2476 296.947 74.2476C299.075 74.2476 300.942 73.7425 302.649 72.7398C304.379 71.7372 305.749 70.3825 306.751 68.6834C307.754 66.9536 308.259 65.0172 308.259 62.8895C308.259 60.7617 307.754 58.8942 306.751 57.1874C305.749 55.4806 304.379 54.1489 302.649 53.1769ZM303.108 66.724C302.504 67.8185 301.662 68.6833 300.598 69.3263C299.534 69.9615 298.317 70.283 296.947 70.283C295.577 70.283 294.36 69.9615 293.296 69.3263C292.232 68.691 291.398 67.8185 290.786 66.724C290.181 65.5989 289.875 64.3207 289.875 62.8895C289.875 61.4582 290.181 60.2413 290.786 59.1468C291.39 58.0523 292.232 57.2027 293.296 56.5904C294.36 55.9552 295.577 55.6337 296.947 55.6337C298.317 55.6337 299.519 55.9552 300.552 56.5904C301.616 57.1951 302.45 58.0523 303.062 59.1468C303.698 60.2413 304.019 61.4888 304.019 62.8895C304.019 64.2901 303.713 65.5989 303.108 66.724Z" fill="#1F2420"/>
<path d="M325.84 52.2661C324.96 51.8681 323.972 51.6768 322.878 51.6768C320.475 51.6768 318.638 52.4957 317.36 54.1413C317.229 54.3097 317.115 54.4857 316.992 54.6617V52.136H312.89V73.8037H316.992V61.4429C316.992 59.4683 317.482 57.9911 318.454 57.0191C319.426 56.047 320.674 55.5572 322.197 55.5572C322.924 55.5572 323.567 55.6644 324.11 55.8787C324.661 56.093 325.159 56.445 325.618 56.9272L328.312 54.1413C327.554 53.2611 326.728 52.6335 325.848 52.2737L325.84 52.2661Z" fill="#1F2420"/>
<path d="M336.731 56.5981C337.795 55.9629 339.012 55.6414 340.382 55.6414C341.538 55.6414 342.586 55.8557 343.528 56.2766C344.5 56.6746 345.319 57.264 345.992 58.0523L348.732 55.3123C347.699 54.126 346.467 53.2305 345.036 52.6182C343.604 51.9829 342.058 51.6614 340.382 51.6614C338.254 51.6614 336.326 52.1666 334.588 53.1692C332.881 54.1413 331.534 55.4807 330.532 57.1798C329.56 58.8866 329.07 60.8 329.07 62.9278C329.07 65.0555 329.552 66.9383 330.532 68.6757C331.534 70.3825 332.889 71.7296 334.588 72.7322C336.318 73.7348 338.254 74.24 340.382 74.24C342.051 74.24 343.604 73.9185 345.036 73.2833C346.497 72.648 347.73 71.7449 348.732 70.5892L346.038 67.8491C345.342 68.6374 344.5 69.2497 343.528 69.6707C342.586 70.0687 341.538 70.2601 340.382 70.2601C339.012 70.2601 337.795 69.9386 336.731 69.3033C335.667 68.6681 334.825 67.7955 334.221 66.701C333.608 65.6066 333.31 64.3437 333.31 62.9125C333.31 61.4812 333.616 60.2183 334.221 59.1238C334.825 58.0294 335.667 57.1798 336.731 56.5675V56.5981Z" fill="#1F2420"/>
<path d="M367.453 53.0391C365.93 52.1283 364.17 51.6691 362.165 51.6691C360.159 51.6691 358.169 52.1742 356.463 53.1769C354.794 54.1489 353.455 55.4883 352.452 57.1874C351.48 58.8942 350.99 60.8076 350.99 62.9354C350.99 65.0631 351.495 67.0225 352.498 68.7293C353.501 70.4361 354.871 71.7831 356.6 72.7857C358.33 73.7578 360.282 74.2476 362.44 74.2476C364.147 74.2476 365.739 73.9262 367.231 73.2909C368.754 72.6556 370.033 71.7219 371.066 70.5049L368.418 67.8108C367.691 68.6604 366.803 69.3033 365.769 69.7243C364.767 70.1529 363.657 70.3595 362.44 70.3595C360.978 70.3595 359.685 70.0534 358.56 69.4487C357.435 68.8135 356.57 67.9256 355.957 66.8005C355.582 66.0964 355.345 65.3157 355.2 64.4738H372.153C372.245 64.0146 372.306 63.6242 372.336 63.2874C372.367 62.9201 372.382 62.591 372.382 62.2848C372.382 60.2489 371.938 58.4197 371.058 56.8124C370.209 55.1974 369.007 53.9422 367.453 53.0238V53.0391ZM358.376 56.3685C359.44 55.7638 360.672 55.4577 362.073 55.4577C363.473 55.4577 364.553 55.7485 365.494 56.3225C366.435 56.8736 367.162 57.6619 367.683 58.6952C368.035 59.3764 368.257 60.1724 368.372 61.0679H355.207C355.345 60.2872 355.575 59.5677 355.911 58.9248C356.485 57.8303 357.312 56.9808 358.376 56.3685Z" fill="#1F2420"/>
<path d="M404 73.7961L392.596 57.3558L403.495 42.1325H398.665L389.871 54.5852L380.87 42.1325H375.765L387.024 57.5931L375.214 73.7961H380.051L389.779 60.3714L398.979 73.7961H404Z" fill="#1F2420"/>
<path d="M42.1921 84.6874C40.3935 84.6491 38.9699 83.1643 39.0005 81.3733L39.4674 57.685C39.3679 56.5981 39.2913 53.4295 41.5109 50.965C42.7202 49.6256 45.024 48.0719 49.1417 48.2709C52.8691 48.4546 54.9892 50.1537 56.1143 51.5467C58.6247 54.6694 58.3032 58.7948 58.1502 59.9658L57.9741 67.1297C57.9741 67.3899 58.0736 68.0176 58.3645 68.3007C58.6017 68.5304 59.1528 68.6452 59.8799 68.6069C62.5128 68.4844 62.9567 67.5736 63.3394 65.5148C63.592 63.9304 63.5078 52.2279 63.2858 41.8417V41.7575V41.6734C63.3853 38.344 65.5666 33.2848 71.1692 33.0093C74.0699 32.8639 76.4885 33.5451 78.3484 35.0375C79.8485 36.2315 80.8894 37.9001 81.3716 39.8441C81.54 40.5176 81.7849 41.5279 81.6548 60.5169C81.6165 66.3567 81.5477 72.1353 81.5094 75.6101C81.4864 77.4087 80.0093 78.8476 78.2106 78.817C76.4196 78.794 74.9807 77.3168 75.0037 75.5259C75.1721 62.3002 75.3022 43.7016 75.0267 41.2983C74.7894 40.4334 74.1312 39.3772 71.4906 39.5073C70.8324 39.538 70.5033 39.7523 70.2048 40.3569C69.9293 40.908 69.8221 41.5585 69.7992 41.8341C69.914 47.184 70.2354 64.0759 69.7379 66.7088C69.4471 68.2625 68.9266 70.2601 67.4495 71.9669C65.7809 73.9033 63.3317 74.9518 60.1784 75.0973C56.849 75.2503 54.8437 73.9722 53.7493 72.8777C51.4761 70.6045 51.4455 67.5124 51.4684 66.9384L51.6521 59.3535V59.055C51.6827 57.6238 51.698 56.4298 50.8714 55.4195C50.7184 55.2281 50.3969 54.8454 48.8202 54.7689C47.6263 54.7077 47.0293 54.8531 46.6542 55.2588C46.2486 55.695 45.9654 56.514 46.0037 56.9196V57.3635L45.9654 57.5931L45.4985 81.4958C45.4602 83.2944 43.9754 84.718 42.1844 84.6874H42.1921ZM57.9741 67.1374V67.1527C57.9741 67.1527 57.9741 67.145 57.9741 67.1374Z" fill="#88A624"/>
<path d="M47.963 44.8726C52.0844 44.8726 55.4254 41.5315 55.4254 37.4102C55.4254 33.2888 52.0844 29.9478 47.963 29.9478C43.8416 29.9478 40.5006 33.2888 40.5006 37.4102C40.5006 41.5315 43.8416 44.8726 47.963 44.8726Z" fill="#88A624"/>
<path d="M72.6234 29.9248C76.7448 29.9248 80.0858 26.5838 80.0858 22.4624C80.0858 18.341 76.7448 15 72.6234 15C68.502 15 65.161 18.341 65.161 22.4624C65.161 26.5838 68.502 29.9248 72.6234 29.9248Z" fill="#88A624"/>
</svg>
