<svg width="500" height="101" viewBox="0 0 500 101" fill="none" xmlns="http://www.w3.org/2000/svg">
<path d="M109.951 44.3188C108.428 43.5305 106.698 43.1325 104.754 43.1325H92.9824V74.7884H97.2684V62.4735H104.746C106.69 62.4735 108.428 62.0755 109.943 61.2872C111.497 60.4683 112.714 59.3432 113.594 57.9119C114.505 56.45 114.964 54.7509 114.964 52.7992C114.964 50.8475 114.505 49.1177 113.594 47.6865C112.714 46.2246 111.497 45.0995 109.943 44.3112L109.951 44.3188ZM109.813 55.9525C109.292 56.8327 108.565 57.5216 107.624 58.0037C106.713 58.4936 105.665 58.7308 104.478 58.7308H97.2684V46.8675H104.478C105.665 46.8675 106.713 47.1125 107.624 47.5946C108.565 48.0845 109.3 48.7657 109.813 49.6459C110.364 50.526 110.632 51.5746 110.632 52.7915C110.632 54.0085 110.356 55.057 109.813 55.9372V55.9525Z" fill="white"/>
<path d="M132.866 53.2661C131.986 52.8681 130.999 52.6767 129.904 52.6767C127.501 52.6767 125.664 53.4957 124.386 55.1412C124.256 55.3096 124.141 55.4857 124.018 55.6617V53.136H119.916V74.8037H124.018V62.4429C124.018 60.4682 124.508 58.9911 125.48 58.019C126.452 57.047 127.7 56.5572 129.223 56.5572C129.95 56.5572 130.593 56.6643 131.136 56.8786C131.687 57.0929 132.185 57.445 132.644 57.9272L135.338 55.1412C134.58 54.2611 133.754 53.6334 132.874 53.2737L132.866 53.2661Z" fill="white"/>
<path d="M153.11 54.1769C151.403 53.1742 149.505 52.6691 147.408 52.6691C145.311 52.6691 143.367 53.1742 141.66 54.1769C139.953 55.1795 138.606 56.5342 137.604 58.2333C136.601 59.9095 136.096 61.7923 136.096 63.8895C136.096 65.9866 136.601 67.946 137.604 69.6834C138.606 71.3901 139.961 72.7372 141.66 73.7398C143.359 74.7425 145.28 75.2476 147.408 75.2476C149.536 75.2476 151.403 74.7425 153.11 73.7398C154.84 72.7372 156.21 71.3825 157.213 69.6834C158.215 67.9536 158.72 66.0172 158.72 63.8895C158.72 61.7617 158.215 59.8942 157.213 58.1874C156.21 56.4806 154.84 55.1489 153.11 54.1769ZM153.562 67.724C152.957 68.8185 152.115 69.6833 151.051 70.3263C149.987 70.9615 148.771 71.283 147.4 71.283C146.03 71.283 144.814 70.9615 143.75 70.3263C142.686 69.691 141.852 68.8185 141.239 67.724C140.635 66.5989 140.328 65.3207 140.328 63.8895C140.328 62.4582 140.635 61.2413 141.239 60.1468C141.844 59.0523 142.686 58.2027 143.75 57.5904C144.814 56.9552 146.03 56.6337 147.4 56.6337C148.771 56.6337 149.972 56.9552 151.005 57.5904C152.069 58.1951 152.904 59.0523 153.516 60.1468C154.151 61.2413 154.473 62.4888 154.473 63.8895C154.473 65.2901 154.166 66.5989 153.562 67.724Z" fill="white"/>
<path d="M199.339 43.1325L191.723 67.0734L184.238 43.1325H181.138L173.668 67.0046L166.083 43.1325H161.797L172.145 74.7961H175.207L182.684 50.9087L190.216 74.7961H193.269L203.579 43.1325H199.339Z" fill="white"/>
<path d="M220.371 54.1769C218.665 53.1742 216.766 52.6691 214.669 52.6691C212.572 52.6691 210.628 53.1742 208.921 54.1769C207.214 55.1795 205.867 56.5342 204.865 58.2333C203.862 59.9095 203.357 61.7923 203.357 63.8895C203.357 65.9866 203.862 67.946 204.865 69.6834C205.867 71.3901 207.222 72.7372 208.921 73.7398C210.62 74.7425 212.542 75.2476 214.669 75.2476C216.797 75.2476 218.665 74.7425 220.371 73.7398C222.101 72.7372 223.471 71.3825 224.474 69.6834C225.476 67.9536 225.981 66.0172 225.981 63.8895C225.981 61.7617 225.476 59.8942 224.474 58.1874C223.471 56.4806 222.101 55.1489 220.371 54.1769ZM220.831 67.724C220.226 68.8185 219.384 69.6833 218.32 70.3263C217.256 70.9615 216.039 71.283 214.669 71.283C213.299 71.283 212.082 70.9615 211.018 70.3263C209.955 69.691 209.12 68.8185 208.508 67.724C207.903 66.5989 207.597 65.3207 207.597 63.8895C207.597 62.4582 207.903 61.2413 208.508 60.1468C209.113 59.0523 209.955 58.2027 211.018 57.5904C212.082 56.9552 213.299 56.6337 214.669 56.6337C216.039 56.6337 217.241 56.9552 218.274 57.5904C219.338 58.1951 220.172 59.0523 220.785 60.1468C221.42 61.2413 221.741 62.4888 221.741 63.8895C221.741 65.2901 221.435 66.5989 220.831 67.724Z" fill="white"/>
<path d="M243.562 53.2661C242.682 52.8681 241.695 52.6767 240.6 52.6767C238.197 52.6767 236.36 53.4957 235.082 55.1412C234.952 55.3096 234.837 55.4857 234.714 55.6617V53.136H230.612V74.8037H234.714V62.4429C234.714 60.4682 235.204 58.9911 236.176 58.019C237.148 57.047 238.396 56.5572 239.919 56.5572C240.646 56.5572 241.289 56.6643 241.832 56.8786C242.383 57.0929 242.881 57.445 243.34 57.9272L246.034 55.1412C245.277 54.2611 244.45 53.6334 243.57 53.2737L243.562 53.2661Z" fill="white"/>
<path d="M267.664 53.1283H262.697L253.022 63.3231V42.2217H248.92V74.7961H253.022V64.1114L262.788 74.7961H268.077L257.699 63.5451L267.664 53.1283Z" fill="white"/>
<path d="M278.333 46.7374C279.06 45.9797 280.078 45.597 281.387 45.597C282.083 45.597 282.68 45.7195 283.163 45.9644C283.652 46.1787 284.089 46.5002 284.487 46.9211L287.181 44.2729C286.423 43.454 285.581 42.8264 284.67 42.4054C283.76 41.9768 282.68 41.7701 281.433 41.7701C279.787 41.7701 278.348 42.1222 277.101 42.8187C275.884 43.5152 274.927 44.4796 274.231 45.6889C273.534 46.8752 273.182 48.2758 273.182 49.8831V53.1206H267.847V56.8633H273.182V74.7884H277.285V56.8633H284.173V53.1206H277.285V49.8831C277.285 48.5437 277.637 47.4951 278.333 46.7374Z" fill="white"/>
<path d="M302.649 54.1769C300.942 53.1742 299.044 52.6691 296.947 52.6691C294.85 52.6691 292.906 53.1742 291.199 54.1769C289.492 55.1795 288.145 56.5342 287.143 58.2333C286.14 59.9095 285.635 61.7923 285.635 63.8895C285.635 65.9866 286.14 67.946 287.143 69.6834C288.145 71.3901 289.5 72.7372 291.199 73.7398C292.898 74.7425 294.819 75.2476 296.947 75.2476C299.075 75.2476 300.942 74.7425 302.649 73.7398C304.379 72.7372 305.749 71.3825 306.751 69.6834C307.754 67.9536 308.259 66.0172 308.259 63.8895C308.259 61.7617 307.754 59.8942 306.751 58.1874C305.749 56.4806 304.379 55.1489 302.649 54.1769ZM303.108 67.724C302.504 68.8185 301.662 69.6833 300.598 70.3263C299.534 70.9615 298.317 71.283 296.947 71.283C295.577 71.283 294.36 70.9615 293.296 70.3263C292.232 69.691 291.398 68.8185 290.786 67.724C290.181 66.5989 289.875 65.3207 289.875 63.8895C289.875 62.4582 290.181 61.2413 290.786 60.1468C291.39 59.0523 292.232 58.2027 293.296 57.5904C294.36 56.9552 295.577 56.6337 296.947 56.6337C298.317 56.6337 299.519 56.9552 300.552 57.5904C301.616 58.1951 302.45 59.0523 303.062 60.1468C303.698 61.2413 304.019 62.4888 304.019 63.8895C304.019 65.2901 303.713 66.5989 303.108 67.724Z" fill="white"/>
<path d="M325.84 53.2661C324.96 52.8681 323.972 52.6767 322.878 52.6767C320.475 52.6767 318.638 53.4957 317.36 55.1412C317.229 55.3096 317.115 55.4857 316.992 55.6617V53.136H312.89V74.8037H316.992V62.4429C316.992 60.4682 317.482 58.9911 318.454 58.019C319.426 57.047 320.674 56.5572 322.197 56.5572C322.924 56.5572 323.567 56.6643 324.11 56.8786C324.661 57.0929 325.159 57.445 325.618 57.9272L328.312 55.1412C327.554 54.2611 326.728 53.6334 325.848 53.2737L325.84 53.2661Z" fill="white"/>
<path d="M336.731 57.5981C337.795 56.9628 339.012 56.6414 340.382 56.6414C341.538 56.6414 342.586 56.8557 343.528 57.2766C344.5 57.6746 345.319 58.264 345.992 59.0523L348.732 56.3123C347.699 55.1259 346.467 54.2304 345.036 53.6181C343.604 52.9829 342.058 52.6614 340.382 52.6614C338.254 52.6614 336.326 53.1666 334.588 54.1692C332.881 55.1412 331.534 56.4806 330.532 58.1798C329.56 59.8865 329.07 61.8 329.07 63.9277C329.07 66.0555 329.552 67.9383 330.532 69.6757C331.534 71.3825 332.889 72.7295 334.588 73.7322C336.318 74.7348 338.254 75.24 340.382 75.24C342.051 75.24 343.604 74.9185 345.036 74.2832C346.497 73.648 347.73 72.7448 348.732 71.5891L346.038 68.8491C345.342 69.6374 344.5 70.2497 343.528 70.6707C342.586 71.0687 341.538 71.26 340.382 71.26C339.012 71.26 337.795 70.9386 336.731 70.3033C335.667 69.668 334.825 68.7955 334.221 67.701C333.608 66.6065 333.31 65.3437 333.31 63.9124C333.31 62.4812 333.616 61.2183 334.221 60.1238C334.825 59.0293 335.667 58.1798 336.731 57.5675V57.5981Z" fill="white"/>
<path d="M367.453 54.0391C365.93 53.1283 364.17 52.6691 362.165 52.6691C360.159 52.6691 358.169 53.1742 356.463 54.1769C354.794 55.1489 353.455 56.4883 352.452 58.1874C351.48 59.8942 350.99 61.8076 350.99 63.9354C350.99 66.0631 351.495 68.0225 352.498 69.7293C353.501 71.4361 354.871 72.7831 356.6 73.7857C358.33 74.7578 360.282 75.2476 362.44 75.2476C364.147 75.2476 365.739 74.9262 367.231 74.2909C368.754 73.6556 370.033 72.7219 371.066 71.5049L368.418 68.8108C367.691 69.6604 366.803 70.3033 365.769 70.7243C364.767 71.1529 363.657 71.3595 362.44 71.3595C360.978 71.3595 359.685 71.0534 358.56 70.4487C357.435 69.8135 356.57 68.9256 355.957 67.8005C355.582 67.0964 355.345 66.3157 355.2 65.4738H372.153C372.245 65.0146 372.306 64.6242 372.336 64.2874C372.367 63.9201 372.382 63.591 372.382 63.2848C372.382 61.2489 371.938 59.4197 371.058 57.8124C370.209 56.1974 369.007 54.9422 367.453 54.0238V54.0391ZM358.376 57.3685C359.44 56.7638 360.672 56.4577 362.073 56.4577C363.473 56.4577 364.553 56.7485 365.494 57.3225C366.435 57.8736 367.162 58.6619 367.683 59.6952C368.035 60.3764 368.257 61.1724 368.372 62.0679H355.207C355.345 61.2872 355.575 60.5677 355.911 59.9248C356.485 58.8303 357.312 57.9808 358.376 57.3685Z" fill="white"/>
<path d="M404 74.7961L392.596 58.3558L403.495 43.1325H398.665L389.871 55.5852L380.87 43.1325H375.765L387.024 58.5931L375.214 74.7961H380.051L389.779 61.3714L398.979 74.7961H404Z" fill="white"/>
<path d="M42.1921 85.6874C40.3935 85.6491 38.9699 84.1643 39.0005 82.3733L39.4674 58.685C39.3679 57.5981 39.2913 54.4295 41.5109 51.965C42.7202 50.6256 45.024 49.0719 49.1417 49.2709C52.8691 49.4546 54.9892 51.1537 56.1143 52.5467C58.6247 55.6694 58.3032 59.7948 58.1502 60.9658L57.9741 68.1297C57.9741 68.3899 58.0736 69.0176 58.3645 69.3007C58.6017 69.5304 59.1528 69.6452 59.8799 69.6069C62.5128 69.4844 62.9567 68.5736 63.3394 66.5148C63.592 64.9304 63.5078 53.2279 63.2858 42.8417V42.7575V42.6734C63.3853 39.344 65.5666 34.2848 71.1692 34.0093C74.0699 33.8639 76.4885 34.5451 78.3484 36.0375C79.8485 37.2315 80.8894 38.9001 81.3716 40.8441C81.54 41.5176 81.7849 42.5279 81.6548 61.5169C81.6165 67.3567 81.5477 73.1353 81.5094 76.6101C81.4864 78.4087 80.0093 79.8476 78.2106 79.817C76.4196 79.794 74.9807 78.3168 75.0037 76.5259C75.1721 63.3002 75.3022 44.7016 75.0267 42.2983C74.7894 41.4334 74.1312 40.3772 71.4906 40.5073C70.8324 40.538 70.5033 40.7523 70.2048 41.3569C69.9293 41.908 69.8221 42.5585 69.7992 42.8341C69.914 48.184 70.2354 65.0759 69.7379 67.7088C69.4471 69.2625 68.9266 71.2601 67.4495 72.9669C65.7809 74.9033 63.3317 75.9518 60.1784 76.0973C56.849 76.2503 54.8437 74.9722 53.7493 73.8777C51.4761 71.6045 51.4455 68.5124 51.4684 67.9384L51.6521 60.3535V60.055C51.6827 58.6238 51.698 57.4298 50.8714 56.4195C50.7184 56.2281 50.3969 55.8454 48.8202 55.7689C47.6263 55.7077 47.0293 55.8531 46.6542 56.2588C46.2486 56.695 45.9654 57.514 46.0037 57.9196V58.3635L45.9654 58.5931L45.4985 82.4958C45.4602 84.2944 43.9754 85.718 42.1844 85.6874H42.1921ZM57.9741 68.1374V68.1527C57.9741 68.1527 57.9741 68.145 57.9741 68.1374Z" fill="#88A624"/>
<path d="M47.963 45.8726C52.0844 45.8726 55.4254 42.5315 55.4254 38.4102C55.4254 34.2888 52.0844 30.9478 47.963 30.9478C43.8416 30.9478 40.5006 34.2888 40.5006 38.4102C40.5006 42.5315 43.8416 45.8726 47.963 45.8726Z" fill="#88A624"/>
<path d="M72.6234 30.9248C76.7448 30.9248 80.0858 27.5838 80.0858 23.4624C80.0858 19.341 76.7448 16 72.6234 16C68.502 16 65.161 19.341 65.161 23.4624C65.161 27.5838 68.502 30.9248 72.6234 30.9248Z" fill="#88A624"/>
</svg>
