<svg width="442" height="336" viewBox="0 0 442 336" fill="none" xmlns="http://www.w3.org/2000/svg">
<g clip-path="url(#clip0_2247_4320)">
<g opacity="0.2">
<mask id="mask0_2247_4320" style="mask-type:alpha" maskUnits="userSpaceOnUse" x="-333" y="-206" width="653" height="653">
<circle cx="326.5" cy="326.5" r="326.5" transform="matrix(-1 8.74228e-08 8.74228e-08 1 320 -206)" fill="#D9D9D9"/>
</mask>
<g mask="url(#mask0_2247_4320)">
<rect width="55.2828" height="55.2828" transform="matrix(-1 8.74228e-08 8.74228e-08 1 331.566 -16.8672)" stroke="#093224" stroke-width="1.10566"/>
<rect width="55.2828" height="55.2828" transform="matrix(-1 8.74228e-08 8.74228e-08 1 276.285 -16.8672)" stroke="#093224" stroke-width="1.10566"/>
<rect width="55.2828" height="55.2828" transform="matrix(-1 8.74228e-08 8.74228e-08 1 221 -16.8672)" stroke="#093224" stroke-width="1.10566"/>
<rect width="55.2828" height="55.2828" transform="matrix(-1 8.74228e-08 8.74228e-08 1 165.719 -16.8672)" stroke="#093224" stroke-width="1.10566"/>
<rect width="55.2828" height="55.2828" transform="matrix(-1 8.74228e-08 8.74228e-08 1 110.434 -16.8672)" stroke="#093224" stroke-width="1.10566"/>
<rect width="55.2828" height="55.2828" transform="matrix(-1 8.74228e-08 8.74228e-08 1 55.1523 -16.8672)" stroke="#093224" stroke-width="1.10566"/>
<rect width="55.2828" height="55.2828" transform="matrix(-1 8.74228e-08 8.74228e-08 1 -0.128906 -16.8672)" stroke="#093224" stroke-width="1.10566"/>
<rect width="55.2828" height="55.2828" transform="matrix(-1 8.74228e-08 8.74228e-08 1 331.566 38.416)" stroke="#093224" stroke-width="1.10566"/>
<rect width="55.2828" height="55.2828" transform="matrix(-1 8.74228e-08 8.74228e-08 1 276.285 38.416)" stroke="#093224" stroke-width="1.10566"/>
<rect width="55.2828" height="55.2828" transform="matrix(-1 8.74228e-08 8.74228e-08 1 221 38.416)" stroke="#093224" stroke-width="1.10566"/>
<rect width="55.2828" height="55.2828" transform="matrix(-1 8.74228e-08 8.74228e-08 1 165.719 38.416)" stroke="#093224" stroke-width="1.10566"/>
<rect width="55.2828" height="55.2828" transform="matrix(-1 8.74228e-08 8.74228e-08 1 110.434 38.416)" stroke="#093224" stroke-width="1.10566"/>
<rect width="55.2828" height="55.2828" transform="matrix(-1 8.74228e-08 8.74228e-08 1 55.1523 38.416)" fill="#093224" stroke="#093224" stroke-width="1.10566"/>
<rect width="55.2828" height="55.2828" transform="matrix(-1 8.74228e-08 8.74228e-08 1 -0.128906 38.416)" stroke="#093224" stroke-width="1.10566"/>
<rect width="55.2828" height="55.2828" transform="matrix(-1 8.74228e-08 8.74228e-08 1 331.566 93.7012)" stroke="#093224" stroke-width="1.10566"/>
<rect width="55.2828" height="55.2828" transform="matrix(-1 8.74228e-08 8.74228e-08 1 276.285 93.7012)" stroke="#093224" stroke-width="1.10566"/>
<rect width="55.2828" height="55.2828" transform="matrix(-1 8.74228e-08 8.74228e-08 1 221 93.7012)" stroke="#093224" stroke-width="1.10566"/>
<rect width="55.2828" height="55.2828" transform="matrix(-1 8.74228e-08 8.74228e-08 1 165.719 93.7012)" stroke="#093224" stroke-width="1.10566"/>
<rect width="55.2828" height="55.2828" transform="matrix(-1 8.74228e-08 8.74228e-08 1 110.434 93.7012)" stroke="#093224" stroke-width="1.10566"/>
<rect width="55.2828" height="55.2828" transform="matrix(-1 8.74228e-08 8.74228e-08 1 55.1523 93.7012)" stroke="#093224" stroke-width="1.10566"/>
<rect width="55.2828" height="55.2828" transform="matrix(-1 8.74228e-08 8.74228e-08 1 -0.128906 93.7012)" stroke="#093224" stroke-width="1.10566"/>
<rect width="55.2828" height="55.2828" transform="matrix(-1 8.74228e-08 8.74228e-08 1 331.566 148.98)" stroke="#093224" stroke-width="1.10566"/>
<rect width="55.2828" height="55.2828" transform="matrix(-1 8.74228e-08 8.74228e-08 1 276.285 148.98)" stroke="#093224" stroke-width="1.10566"/>
<rect width="55.2828" height="55.2828" transform="matrix(-1 8.74228e-08 8.74228e-08 1 221 148.98)" stroke="#093224" stroke-width="1.10566"/>
<rect width="55.2828" height="55.2828" transform="matrix(-1 8.74228e-08 8.74228e-08 1 165.719 148.98)" fill="#093224" fill-opacity="0.05" stroke="#093224" stroke-width="1.10566"/>
<rect width="55.2828" height="55.2828" transform="matrix(-1 8.74228e-08 8.74228e-08 1 110.434 148.98)" stroke="#093224" stroke-width="1.10566"/>
<rect width="55.2828" height="55.2828" transform="matrix(-1 8.74228e-08 8.74228e-08 1 55.1523 148.98)" stroke="#093224" stroke-width="1.10566"/>
<rect width="55.2828" height="55.2828" transform="matrix(-1 8.74228e-08 8.74228e-08 1 -0.128906 148.98)" stroke="#093224" stroke-width="1.10566"/>
<rect width="55.2828" height="55.2828" transform="matrix(-1 8.74228e-08 8.74228e-08 1 331.566 204.266)" stroke="#093224" stroke-width="1.10566"/>
<rect width="55.2828" height="55.2828" transform="matrix(-1 8.74228e-08 8.74228e-08 1 276.285 204.266)" stroke="#093224" stroke-width="1.10566"/>
<rect width="55.2828" height="55.2828" transform="matrix(-1 8.74228e-08 8.74228e-08 1 221 204.266)" stroke="#093224" stroke-width="1.10566"/>
<rect width="55.2828" height="55.2828" transform="matrix(-1 8.74228e-08 8.74228e-08 1 165.719 204.266)" stroke="#093224" stroke-width="1.10566"/>
<rect width="55.2828" height="55.2828" transform="matrix(-1 8.74228e-08 8.74228e-08 1 110.434 204.266)" stroke="#093224" stroke-width="1.10566"/>
<rect width="55.2828" height="55.2828" transform="matrix(-1 8.74228e-08 8.74228e-08 1 55.1523 204.266)" stroke="#093224" stroke-width="1.10566"/>
<rect width="55.2828" height="55.2828" transform="matrix(-1 8.74228e-08 8.74228e-08 1 -0.128906 204.266)" stroke="#093224" stroke-width="1.10566"/>
<rect width="55.2828" height="55.2828" transform="matrix(-1 8.74228e-08 8.74228e-08 1 331.566 259.545)" stroke="#093224" stroke-width="1.10566"/>
<rect width="55.2828" height="55.2828" transform="matrix(-1 8.74228e-08 8.74228e-08 1 276.285 259.545)" stroke="#093224" stroke-width="1.10566"/>
<rect width="55.2828" height="55.2828" transform="matrix(-1 8.74228e-08 8.74228e-08 1 221 259.545)" stroke="#093224" stroke-width="1.10566"/>
<rect width="55.2828" height="55.2828" transform="matrix(-1 8.74228e-08 8.74228e-08 1 165.719 259.545)" stroke="#093224" stroke-width="1.10566"/>
<rect width="55.2828" height="55.2828" transform="matrix(-1 8.74228e-08 8.74228e-08 1 110.434 259.545)" stroke="#093224" stroke-width="1.10566"/>
<rect width="55.2828" height="55.2828" transform="matrix(-1 8.74228e-08 8.74228e-08 1 55.1523 259.545)" stroke="#093224" stroke-width="1.10566"/>
<rect width="55.2828" height="55.2828" transform="matrix(-1 8.74228e-08 8.74228e-08 1 -0.128906 259.545)" stroke="#093224" stroke-width="1.10566"/>
<rect width="55.2828" height="55.2828" transform="matrix(-1 8.74228e-08 8.74228e-08 1 331.566 314.83)" stroke="#093224" stroke-width="1.10566"/>
<rect width="55.2828" height="55.2828" transform="matrix(-1 8.74228e-08 8.74228e-08 1 276.285 314.83)" stroke="#093224" stroke-width="1.10566"/>
<rect width="55.2828" height="55.2828" transform="matrix(-1 8.74228e-08 8.74228e-08 1 221 314.83)" stroke="#093224" stroke-width="1.10566"/>
<rect width="55.2828" height="55.2828" transform="matrix(-1 8.74228e-08 8.74228e-08 1 165.719 314.83)" stroke="#093224" stroke-width="1.10566"/>
<rect width="55.2828" height="55.2828" transform="matrix(-1 8.74228e-08 8.74228e-08 1 110.434 314.83)" stroke="#093224" stroke-width="1.10566"/>
<rect width="55.2828" height="55.2828" transform="matrix(-1 8.74228e-08 8.74228e-08 1 55.1523 314.83)" stroke="#093224" stroke-width="1.10566"/>
<rect width="55.2828" height="55.2828" transform="matrix(-1 8.74228e-08 8.74228e-08 1 -0.128906 314.83)" stroke="#093224" stroke-width="1.10566"/>
</g>
</g>
</g>
<defs>
<clipPath id="clip0_2247_4320">
<rect width="394" height="442" fill="white" transform="matrix(-4.37114e-08 -1 -1 4.37114e-08 442 394)"/>
</clipPath>
</defs>
</svg>
