<svg width="442" height="336" viewBox="0 0 442 336" fill="none" xmlns="http://www.w3.org/2000/svg">
<g clip-path="url(#clip0_2247_4610)">
<g opacity="0.2">
<mask id="mask0_2247_4610" style="mask-type:alpha" maskUnits="userSpaceOnUse" x="122" y="-53" width="653" height="653">
<circle cx="326.5" cy="326.5" r="326.5" transform="matrix(1 -8.74228e-08 -8.74228e-08 -1 122 600)" fill="#D9D9D9"/>
</mask>
<g mask="url(#mask0_2247_4610)">
<rect width="55.2828" height="55.2828" transform="matrix(1 -8.74228e-08 -8.74228e-08 -1 110.434 355.584)" stroke="#093224" stroke-width="1.10566"/>
<rect width="55.2828" height="55.2828" transform="matrix(1 -8.74228e-08 -8.74228e-08 -1 165.715 355.584)" stroke="#093224" stroke-width="1.10566"/>
<rect width="55.2828" height="55.2828" transform="matrix(1 -8.74228e-08 -8.74228e-08 -1 221 355.584)" stroke="#093224" stroke-width="1.10566"/>
<rect width="55.2828" height="55.2828" transform="matrix(1 -8.74228e-08 -8.74228e-08 -1 276.281 355.584)" stroke="#093224" stroke-width="1.10566"/>
<rect width="55.2828" height="55.2828" transform="matrix(1 -8.74228e-08 -8.74228e-08 -1 331.566 355.584)" stroke="#093224" stroke-width="1.10566"/>
<rect width="55.2828" height="55.2828" transform="matrix(1 -8.74228e-08 -8.74228e-08 -1 386.848 355.584)" fill="#093224" stroke="#093224" stroke-width="1.10566"/>
<rect width="55.2828" height="55.2828" transform="matrix(1 -8.74228e-08 -8.74228e-08 -1 442.129 355.584)" stroke="#093224" stroke-width="1.10566"/>
<rect width="55.2828" height="55.2828" transform="matrix(1 -8.74228e-08 -8.74228e-08 -1 110.434 300.299)" stroke="#093224" stroke-width="1.10566"/>
<rect width="55.2828" height="55.2828" transform="matrix(1 -8.74228e-08 -8.74228e-08 -1 165.715 300.299)" stroke="#093224" stroke-width="1.10566"/>
<rect width="55.2828" height="55.2828" transform="matrix(1 -8.74228e-08 -8.74228e-08 -1 221 300.299)" stroke="#093224" stroke-width="1.10566"/>
<rect width="55.2828" height="55.2828" transform="matrix(1 -8.74228e-08 -8.74228e-08 -1 276.281 300.299)" stroke="#093224" stroke-width="1.10566"/>
<rect width="55.2828" height="55.2828" transform="matrix(1 -8.74228e-08 -8.74228e-08 -1 331.566 300.299)" stroke="#093224" stroke-width="1.10566"/>
<rect width="55.2828" height="55.2828" transform="matrix(1 -8.74228e-08 -8.74228e-08 -1 386.848 300.299)" stroke="#093224" stroke-width="1.10566"/>
<rect width="55.2828" height="55.2828" transform="matrix(1 -8.74228e-08 -8.74228e-08 -1 442.129 300.299)" stroke="#093224" stroke-width="1.10566"/>
<rect width="55.2828" height="55.2828" transform="matrix(1 -8.74228e-08 -8.74228e-08 -1 110.434 245.02)" stroke="#093224" stroke-width="1.10566"/>
<rect width="55.2828" height="55.2828" transform="matrix(1 -8.74228e-08 -8.74228e-08 -1 165.715 245.02)" stroke="#093224" stroke-width="1.10566"/>
<rect width="55.2828" height="55.2828" transform="matrix(1 -8.74228e-08 -8.74228e-08 -1 221 245.02)" stroke="#093224" stroke-width="1.10566"/>
<rect width="55.2828" height="55.2828" transform="matrix(1 -8.74228e-08 -8.74228e-08 -1 276.281 245.02)" fill="#093224" fill-opacity="0.05" stroke="#093224" stroke-width="1.10566"/>
<rect width="55.2828" height="55.2828" transform="matrix(1 -8.74228e-08 -8.74228e-08 -1 331.566 245.02)" stroke="#093224" stroke-width="1.10566"/>
<rect width="55.2828" height="55.2828" transform="matrix(1 -8.74228e-08 -8.74228e-08 -1 386.848 245.02)" stroke="#093224" stroke-width="1.10566"/>
<rect width="55.2828" height="55.2828" transform="matrix(1 -8.74228e-08 -8.74228e-08 -1 442.129 245.02)" stroke="#093224" stroke-width="1.10566"/>
<rect width="55.2828" height="55.2828" transform="matrix(1 -8.74228e-08 -8.74228e-08 -1 110.434 189.734)" stroke="#093224" stroke-width="1.10566"/>
<rect width="55.2828" height="55.2828" transform="matrix(1 -8.74228e-08 -8.74228e-08 -1 165.715 189.734)" stroke="#093224" stroke-width="1.10566"/>
<rect width="55.2828" height="55.2828" transform="matrix(1 -8.74228e-08 -8.74228e-08 -1 221 189.734)" stroke="#093224" stroke-width="1.10566"/>
<rect width="55.2828" height="55.2828" transform="matrix(1 -8.74228e-08 -8.74228e-08 -1 276.281 189.734)" stroke="#093224" stroke-width="1.10566"/>
<rect width="55.2828" height="55.2828" transform="matrix(1 -8.74228e-08 -8.74228e-08 -1 331.566 189.734)" stroke="#093224" stroke-width="1.10566"/>
<rect width="55.2828" height="55.2828" transform="matrix(1 -8.74228e-08 -8.74228e-08 -1 386.848 189.734)" stroke="#093224" stroke-width="1.10566"/>
<rect width="55.2828" height="55.2828" transform="matrix(1 -8.74228e-08 -8.74228e-08 -1 442.129 189.734)" stroke="#093224" stroke-width="1.10566"/>
<rect width="55.2828" height="55.2828" transform="matrix(1 -8.74228e-08 -8.74228e-08 -1 110.434 134.455)" stroke="#093224" stroke-width="1.10566"/>
<rect width="55.2828" height="55.2828" transform="matrix(1 -8.74228e-08 -8.74228e-08 -1 165.715 134.455)" stroke="#093224" stroke-width="1.10566"/>
<rect width="55.2828" height="55.2828" transform="matrix(1 -8.74228e-08 -8.74228e-08 -1 221 134.455)" stroke="#093224" stroke-width="1.10566"/>
<rect width="55.2828" height="55.2828" transform="matrix(1 -8.74228e-08 -8.74228e-08 -1 276.281 134.455)" stroke="#093224" stroke-width="1.10566"/>
<rect width="55.2828" height="55.2828" transform="matrix(1 -8.74228e-08 -8.74228e-08 -1 331.566 134.455)" stroke="#093224" stroke-width="1.10566"/>
<rect width="55.2828" height="55.2828" transform="matrix(1 -8.74228e-08 -8.74228e-08 -1 386.848 134.455)" stroke="#093224" stroke-width="1.10566"/>
<rect width="55.2828" height="55.2828" transform="matrix(1 -8.74228e-08 -8.74228e-08 -1 442.129 134.455)" stroke="#093224" stroke-width="1.10566"/>
<rect width="55.2828" height="55.2828" transform="matrix(1 -8.74228e-08 -8.74228e-08 -1 110.434 79.1699)" stroke="#093224" stroke-width="1.10566"/>
<rect width="55.2828" height="55.2828" transform="matrix(1 -8.74228e-08 -8.74228e-08 -1 165.715 79.1699)" stroke="#093224" stroke-width="1.10566"/>
<rect width="55.2828" height="55.2828" transform="matrix(1 -8.74228e-08 -8.74228e-08 -1 221 79.1699)" stroke="#093224" stroke-width="1.10566"/>
<rect width="55.2828" height="55.2828" transform="matrix(1 -8.74228e-08 -8.74228e-08 -1 276.281 79.1699)" stroke="#093224" stroke-width="1.10566"/>
<rect width="55.2828" height="55.2828" transform="matrix(1 -8.74228e-08 -8.74228e-08 -1 331.566 79.1699)" stroke="#093224" stroke-width="1.10566"/>
<rect width="55.2828" height="55.2828" transform="matrix(1 -8.74228e-08 -8.74228e-08 -1 386.848 79.1699)" stroke="#093224" stroke-width="1.10566"/>
<rect width="55.2828" height="55.2828" transform="matrix(1 -8.74228e-08 -8.74228e-08 -1 442.129 79.1699)" stroke="#093224" stroke-width="1.10566"/>
<rect width="55.2828" height="55.2828" transform="matrix(1 -8.74228e-08 -8.74228e-08 -1 110.434 23.8906)" stroke="#093224" stroke-width="1.10566"/>
<rect width="55.2828" height="55.2828" transform="matrix(1 -8.74228e-08 -8.74228e-08 -1 165.715 23.8906)" stroke="#093224" stroke-width="1.10566"/>
<rect width="55.2828" height="55.2828" transform="matrix(1 -8.74228e-08 -8.74228e-08 -1 221 23.8906)" stroke="#093224" stroke-width="1.10566"/>
<rect width="55.2828" height="55.2828" transform="matrix(1 -8.74228e-08 -8.74228e-08 -1 276.281 23.8906)" stroke="#093224" stroke-width="1.10566"/>
<rect width="55.2828" height="55.2828" transform="matrix(1 -8.74228e-08 -8.74228e-08 -1 331.566 23.8906)" stroke="#093224" stroke-width="1.10566"/>
<rect width="55.2828" height="55.2828" transform="matrix(1 -8.74228e-08 -8.74228e-08 -1 386.848 23.8906)" stroke="#093224" stroke-width="1.10566"/>
<rect width="55.2828" height="55.2828" transform="matrix(1 -8.74228e-08 -8.74228e-08 -1 442.129 23.8906)" stroke="#093224" stroke-width="1.10566"/>
</g>
</g>
</g>
<defs>
<clipPath id="clip0_2247_4610">
<rect width="394" height="442" fill="white" transform="matrix(4.37114e-08 1 1 -4.37114e-08 0 0)"/>
</clipPath>
</defs>
</svg>
