<svg width="627" height="478" viewBox="0 0 627 478" fill="none" xmlns="http://www.w3.org/2000/svg">
<g opacity="0.2">
<mask id="mask0_2001_19447" style="mask-type:alpha" maskUnits="userSpaceOnUse" x="128" y="-53" width="551" height="551">
<circle cx="403.5" cy="222.5" r="275.5" fill="#D9D9D9"/>
</mask>
<g mask="url(#mask0_2001_19447)">
<rect x="118.238" y="-33.3545" width="46.6475" height="46.6475" stroke="#093224" stroke-width="0.93295"/>
<rect x="164.885" y="-33.3545" width="46.6475" height="46.6475" stroke="#093224" stroke-width="0.93295"/>
<rect x="211.533" y="-33.3545" width="46.6475" height="46.6475" stroke="#093224" stroke-width="0.93295"/>
<rect x="258.18" y="-33.3545" width="46.6475" height="46.6475" stroke="#093224" stroke-width="0.93295"/>
<rect x="304.828" y="-33.3545" width="46.6475" height="46.6475" fill="#093224" fill-opacity="0.05" stroke="#093224" stroke-width="0.93295"/>
<rect x="351.475" y="-33.3545" width="46.6475" height="46.6475" stroke="#093224" stroke-width="0.93295"/>
<rect x="398.123" y="-33.3545" width="46.6475" height="46.6475" stroke="#093224" stroke-width="0.93295"/>
<rect x="444.77" y="-33.3545" width="46.6475" height="46.6475" stroke="#093224" stroke-width="0.93295"/>
<rect x="491.418" y="-33.3545" width="46.6475" height="46.6475" stroke="#093224" stroke-width="0.93295"/>
<rect x="538.065" y="-33.3545" width="46.6475" height="46.6475" stroke="#093224" stroke-width="0.93295"/>
<rect x="584.713" y="-33.3545" width="46.6475" height="46.6475" stroke="#093224" stroke-width="0.93295"/>
<rect x="118.237" y="13.2959" width="46.6475" height="46.6475" stroke="#093224" stroke-width="0.93295"/>
<rect x="164.885" y="13.2959" width="46.6475" height="46.6475" stroke="#093224" stroke-width="0.93295"/>
<rect x="211.532" y="13.2959" width="46.6475" height="46.6475" stroke="#093224" stroke-width="0.93295"/>
<rect x="258.18" y="13.2959" width="46.6475" height="46.6475" stroke="#093224" stroke-width="0.93295"/>
<rect x="304.827" y="13.2959" width="46.6475" height="46.6475" stroke="#093224" stroke-width="0.93295"/>
<rect x="351.475" y="13.2959" width="46.6475" height="46.6475" stroke="#093224" stroke-width="0.93295"/>
<rect x="398.122" y="13.2959" width="46.6475" height="46.6475" stroke="#093224" stroke-width="0.93295"/>
<rect x="444.77" y="13.2959" width="46.6475" height="46.6475" stroke="#093224" stroke-width="0.93295"/>
<rect x="491.417" y="13.2959" width="46.6475" height="46.6475" stroke="#093224" stroke-width="0.93295"/>
<rect x="538.065" y="13.2959" width="46.6475" height="46.6475" stroke="#093224" stroke-width="0.93295"/>
<rect x="584.713" y="13.2959" width="46.6475" height="46.6475" stroke="#093224" stroke-width="0.93295"/>
<rect x="118.237" y="59.9414" width="46.6475" height="46.6475" stroke="#093224" stroke-width="0.93295"/>
<rect x="164.885" y="59.9414" width="46.6475" height="46.6475" stroke="#093224" stroke-width="0.93295"/>
<rect x="211.532" y="59.9414" width="46.6475" height="46.6475" stroke="#093224" stroke-width="0.93295"/>
<rect x="258.18" y="59.9414" width="46.6475" height="46.6475" fill="#093224" stroke="#093224" stroke-width="0.93295"/>
<rect x="304.827" y="59.9414" width="46.6475" height="46.6475" stroke="#093224" stroke-width="0.93295"/>
<rect x="351.475" y="59.9414" width="46.6475" height="46.6475" stroke="#093224" stroke-width="0.93295"/>
<rect x="398.122" y="59.9414" width="46.6475" height="46.6475" stroke="#093224" stroke-width="0.93295"/>
<rect x="444.77" y="59.9414" width="46.6475" height="46.6475" stroke="#093224" stroke-width="0.93295"/>
<rect x="491.417" y="59.9414" width="46.6475" height="46.6475" stroke="#093224" stroke-width="0.93295"/>
<rect x="538.065" y="59.9414" width="46.6475" height="46.6475" stroke="#093224" stroke-width="0.93295"/>
<rect x="584.713" y="59.9414" width="46.6475" height="46.6475" stroke="#093224" stroke-width="0.93295"/>
<rect x="118.237" y="106.59" width="46.6475" height="46.6475" stroke="#093224" stroke-width="0.93295"/>
<rect x="164.885" y="106.59" width="46.6475" height="46.6475" stroke="#093224" stroke-width="0.93295"/>
<rect x="211.532" y="106.59" width="46.6475" height="46.6475" stroke="#093224" stroke-width="0.93295"/>
<rect x="258.18" y="106.59" width="46.6475" height="46.6475" stroke="#093224" stroke-width="0.93295"/>
<rect x="304.827" y="106.59" width="46.6475" height="46.6475" stroke="#093224" stroke-width="0.93295"/>
<rect x="351.475" y="106.59" width="46.6475" height="46.6475" stroke="#093224" stroke-width="0.93295"/>
<rect x="398.122" y="106.59" width="46.6475" height="46.6475" stroke="#093224" stroke-width="0.93295"/>
<rect x="444.77" y="106.59" width="46.6475" height="46.6475" stroke="#093224" stroke-width="0.93295"/>
<rect x="491.417" y="106.59" width="46.6475" height="46.6475" stroke="#093224" stroke-width="0.93295"/>
<rect x="538.065" y="106.59" width="46.6475" height="46.6475" fill="#093224" stroke="#093224" stroke-width="0.93295"/>
<rect x="584.713" y="106.59" width="46.6475" height="46.6475" stroke="#093224" stroke-width="0.93295"/>
<rect x="118.238" y="153.236" width="46.6475" height="46.6475" stroke="#093224" stroke-width="0.93295"/>
<rect x="164.885" y="153.236" width="46.6475" height="46.6475" stroke="#093224" stroke-width="0.93295"/>
<rect x="211.533" y="153.236" width="46.6475" height="46.6475" stroke="#093224" stroke-width="0.93295"/>
<rect x="258.18" y="153.236" width="46.6475" height="46.6475" stroke="#093224" stroke-width="0.93295"/>
<rect x="304.828" y="153.236" width="46.6475" height="46.6475" stroke="#093224" stroke-width="0.93295"/>
<rect x="351.475" y="153.236" width="46.6475" height="46.6475" fill="#093224" stroke="#093224" stroke-width="0.93295"/>
<rect x="398.123" y="153.236" width="46.6475" height="46.6475" stroke="#093224" stroke-width="0.93295"/>
<rect x="444.77" y="153.236" width="46.6475" height="46.6475" stroke="#093224" stroke-width="0.93295"/>
<rect x="491.418" y="153.236" width="46.6475" height="46.6475" stroke="#093224" stroke-width="0.93295"/>
<rect x="538.065" y="153.236" width="46.6475" height="46.6475" stroke="#093224" stroke-width="0.93295"/>
<rect x="584.713" y="153.236" width="46.6475" height="46.6475" stroke="#093224" stroke-width="0.93295"/>
<rect x="118.238" y="199.886" width="46.6475" height="46.6475" stroke="#093224" stroke-width="0.93295"/>
<rect x="164.885" y="199.886" width="46.6475" height="46.6475" stroke="#093224" stroke-width="0.93295"/>
<rect x="211.533" y="199.886" width="46.6475" height="46.6475" stroke="#093224" stroke-width="0.93295"/>
<rect x="258.18" y="199.886" width="46.6475" height="46.6475" stroke="#093224" stroke-width="0.93295"/>
<rect x="304.828" y="199.886" width="46.6475" height="46.6475" stroke="#093224" stroke-width="0.93295"/>
<rect x="351.475" y="199.886" width="46.6475" height="46.6475" stroke="#093224" stroke-width="0.93295"/>
<rect x="398.123" y="199.886" width="46.6475" height="46.6475" stroke="#093224" stroke-width="0.93295"/>
<rect x="444.77" y="199.886" width="46.6475" height="46.6475" stroke="#093224" stroke-width="0.93295"/>
<rect x="491.418" y="199.886" width="46.6475" height="46.6475" stroke="#093224" stroke-width="0.93295"/>
<rect x="538.065" y="199.886" width="46.6475" height="46.6475" stroke="#093224" stroke-width="0.93295"/>
<rect x="584.713" y="199.886" width="46.6475" height="46.6475" stroke="#093224" stroke-width="0.93295"/>
<rect x="118.238" y="246.531" width="46.6475" height="46.6475" stroke="#093224" stroke-width="0.93295"/>
<rect x="164.885" y="246.531" width="46.6475" height="46.6475" stroke="#093224" stroke-width="0.93295"/>
<rect x="211.533" y="246.531" width="46.6475" height="46.6475" stroke="#093224" stroke-width="0.93295"/>
<rect x="258.18" y="246.531" width="46.6475" height="46.6475" fill="#093224" fill-opacity="0.05" stroke="#093224" stroke-width="0.93295"/>
<rect x="304.828" y="246.531" width="46.6475" height="46.6475" stroke="#093224" stroke-width="0.93295"/>
<rect x="351.475" y="246.531" width="46.6475" height="46.6475" stroke="#093224" stroke-width="0.93295"/>
<rect x="398.123" y="246.531" width="46.6475" height="46.6475" stroke="#093224" stroke-width="0.93295"/>
<rect x="444.77" y="246.531" width="46.6475" height="46.6475" stroke="#093224" stroke-width="0.93295"/>
<rect x="491.418" y="246.531" width="46.6475" height="46.6475" stroke="#093224" stroke-width="0.93295"/>
<rect x="538.065" y="246.531" width="46.6475" height="46.6475" stroke="#093224" stroke-width="0.93295"/>
<rect x="584.713" y="246.531" width="46.6475" height="46.6475" stroke="#093224" stroke-width="0.93295"/>
<rect x="118.237" y="293.181" width="46.6475" height="46.6475" stroke="#093224" stroke-width="0.93295"/>
<rect x="164.885" y="293.181" width="46.6475" height="46.6475" stroke="#093224" stroke-width="0.93295"/>
<rect x="211.532" y="293.181" width="46.6475" height="46.6475" stroke="#093224" stroke-width="0.93295"/>
<rect x="258.18" y="293.181" width="46.6475" height="46.6475" stroke="#093224" stroke-width="0.93295"/>
<rect x="304.827" y="293.181" width="46.6475" height="46.6475" stroke="#093224" stroke-width="0.93295"/>
<rect x="351.475" y="293.181" width="46.6475" height="46.6475" stroke="#093224" stroke-width="0.93295"/>
<rect x="398.122" y="293.181" width="46.6475" height="46.6475" stroke="#093224" stroke-width="0.93295"/>
<rect x="444.77" y="293.181" width="46.6475" height="46.6475" stroke="#093224" stroke-width="0.93295"/>
<rect x="491.417" y="293.181" width="46.6475" height="46.6475" fill="#093224" stroke="#093224" stroke-width="0.93295"/>
<rect x="538.065" y="293.181" width="46.6475" height="46.6475" stroke="#093224" stroke-width="0.93295"/>
<rect x="584.713" y="293.181" width="46.6475" height="46.6475" stroke="#093224" stroke-width="0.93295"/>
<rect x="118.237" y="339.826" width="46.6475" height="46.6475" stroke="#093224" stroke-width="0.93295"/>
<rect x="164.885" y="339.826" width="46.6475" height="46.6475" stroke="#093224" stroke-width="0.93295"/>
<rect x="211.532" y="339.826" width="46.6475" height="46.6475" stroke="#093224" stroke-width="0.93295"/>
<rect x="258.18" y="339.826" width="46.6475" height="46.6475" stroke="#093224" stroke-width="0.93295"/>
<rect x="304.827" y="339.826" width="46.6475" height="46.6475" stroke="#093224" stroke-width="0.93295"/>
<rect x="351.475" y="339.826" width="46.6475" height="46.6475" stroke="#093224" stroke-width="0.93295"/>
<rect x="398.122" y="339.826" width="46.6475" height="46.6475" stroke="#093224" stroke-width="0.93295"/>
<rect x="444.77" y="339.826" width="46.6475" height="46.6475" stroke="#093224" stroke-width="0.93295"/>
<rect x="491.417" y="339.826" width="46.6475" height="46.6475" stroke="#093224" stroke-width="0.93295"/>
<rect x="538.065" y="339.826" width="46.6475" height="46.6475" stroke="#093224" stroke-width="0.93295"/>
<rect x="584.713" y="339.826" width="46.6475" height="46.6475" stroke="#093224" stroke-width="0.93295"/>
<rect x="118.237" y="386.476" width="46.6475" height="46.6475" stroke="#093224" stroke-width="0.93295"/>
<rect x="164.885" y="386.476" width="46.6475" height="46.6475" stroke="#093224" stroke-width="0.93295"/>
<rect x="211.533" y="386.476" width="46.6475" height="46.6475" stroke="#093224" stroke-width="0.93295"/>
<rect x="258.18" y="386.476" width="46.6475" height="46.6475" stroke="#093224" stroke-width="0.93295"/>
<rect x="304.828" y="386.476" width="46.6475" height="46.6475" stroke="#093224" stroke-width="0.93295"/>
<rect x="351.475" y="386.476" width="46.6475" height="46.6475" stroke="#093224" stroke-width="0.93295"/>
<rect x="398.122" y="386.476" width="46.6475" height="46.6475" stroke="#093224" stroke-width="0.93295"/>
<rect x="444.77" y="386.476" width="46.6475" height="46.6475" stroke="#093224" stroke-width="0.93295"/>
<rect x="491.417" y="386.476" width="46.6475" height="46.6475" stroke="#093224" stroke-width="0.93295"/>
<rect x="538.065" y="386.476" width="46.6475" height="46.6475" stroke="#093224" stroke-width="0.93295"/>
<rect x="584.713" y="386.476" width="46.6475" height="46.6475" stroke="#093224" stroke-width="0.93295"/>
<rect x="118.237" y="433.121" width="46.6475" height="46.6475" stroke="#093224" stroke-width="0.93295"/>
<rect x="164.885" y="433.121" width="46.6475" height="46.6475" stroke="#093224" stroke-width="0.93295"/>
<rect x="211.533" y="433.121" width="46.6475" height="46.6475" stroke="#093224" stroke-width="0.93295"/>
<rect x="258.18" y="433.121" width="46.6475" height="46.6475" stroke="#093224" stroke-width="0.93295"/>
<rect x="304.828" y="433.121" width="46.6475" height="46.6475" stroke="#093224" stroke-width="0.93295"/>
<rect x="351.475" y="433.121" width="46.6475" height="46.6475" stroke="#093224" stroke-width="0.93295"/>
<rect x="398.122" y="433.121" width="46.6475" height="46.6475" stroke="#093224" stroke-width="0.93295"/>
<rect x="444.77" y="433.121" width="46.6475" height="46.6475" stroke="#093224" stroke-width="0.93295"/>
<rect x="491.417" y="433.121" width="46.6475" height="46.6475" stroke="#093224" stroke-width="0.93295"/>
<rect x="538.065" y="433.121" width="46.6475" height="46.6475" stroke="#093224" stroke-width="0.93295"/>
<rect x="584.713" y="433.121" width="46.6475" height="46.6475" stroke="#093224" stroke-width="0.93295"/>
</g>
</g>
</svg>
