<svg width="648" height="166" viewBox="0 0 648 166" fill="none" xmlns="http://www.w3.org/2000/svg">
<g clip-path="url(#clip0_2251_7164)">
<g opacity="0.2">
<mask id="mask0_2251_7164" style="mask-type:alpha" maskUnits="userSpaceOnUse" x="-3" y="67" width="653" height="653">
<circle cx="326.5" cy="326.5" r="326.5" transform="matrix(8.74228e-08 1 1 -8.74228e-08 -3 67)" fill="#D9D9D9"/>
</mask>
<g mask="url(#mask0_2251_7164)">
<rect width="55.2828" height="55.2828" transform="matrix(8.74228e-08 1 1 -8.74228e-08 -35 55.4316)" stroke="#093224" stroke-width="1.10566"/>
<rect width="55.2828" height="55.2828" transform="matrix(8.74228e-08 1 1 -8.74228e-08 -35 110.714)" stroke="#093224" stroke-width="1.10566"/>
<rect width="55.2828" height="55.2828" transform="matrix(8.74228e-08 1 1 -8.74228e-08 -35 165.997)" stroke="#093224" stroke-width="1.10566"/>
<rect width="55.2828" height="55.2828" transform="matrix(8.74228e-08 1 1 -8.74228e-08 20.2812 55.4316)" stroke="#093224" stroke-width="1.10566"/>
<rect width="55.2828" height="55.2828" transform="matrix(8.74228e-08 1 1 -8.74228e-08 20.2812 110.714)" stroke="#093224" stroke-width="1.10566"/>
<rect width="55.2828" height="55.2828" transform="matrix(8.74228e-08 1 1 -8.74228e-08 20.2812 165.997)" stroke="#093224" stroke-width="1.10566"/>
<rect width="55.2828" height="55.2828" transform="matrix(8.74228e-08 1 1 -8.74228e-08 75.5664 55.4316)" stroke="#093224" stroke-width="1.10566"/>
<rect width="55.2828" height="55.2828" transform="matrix(8.74228e-08 1 1 -8.74228e-08 75.5664 110.714)" stroke="#093224" stroke-width="1.10566"/>
<rect width="55.2828" height="55.2828" transform="matrix(8.74228e-08 1 1 -8.74228e-08 75.5664 165.997)" stroke="#093224" stroke-width="1.10566"/>
<rect width="55.2828" height="55.2828" transform="matrix(8.74228e-08 1 1 -8.74228e-08 130.848 55.4316)" stroke="#093224" stroke-width="1.10566"/>
<rect width="55.2828" height="55.2828" transform="matrix(8.74228e-08 1 1 -8.74228e-08 130.848 110.714)" stroke="#093224" stroke-width="1.10566"/>
<rect width="55.2828" height="55.2828" transform="matrix(8.74228e-08 1 1 -8.74228e-08 130.848 165.997)" stroke="#093224" stroke-width="1.10566"/>
<rect width="55.2828" height="55.2828" transform="matrix(8.74228e-08 1 1 -8.74228e-08 186.133 55.4316)" stroke="#093224" stroke-width="1.10566"/>
<rect width="55.2828" height="55.2828" transform="matrix(8.74228e-08 1 1 -8.74228e-08 186.133 110.714)" stroke="#093224" stroke-width="1.10566"/>
<rect width="55.2828" height="55.2828" transform="matrix(8.74228e-08 1 1 -8.74228e-08 186.133 165.997)" stroke="#093224" stroke-width="1.10566"/>
<rect width="55.2828" height="55.2828" transform="matrix(8.74228e-08 1 1 -8.74228e-08 241.414 55.4316)" stroke="#093224" stroke-width="1.10566"/>
<rect width="55.2828" height="55.2828" transform="matrix(8.74228e-08 1 1 -8.74228e-08 241.414 110.714)" stroke="#093224" stroke-width="1.10566"/>
<rect width="55.2828" height="55.2828" transform="matrix(8.74228e-08 1 1 -8.74228e-08 241.414 165.997)" stroke="#093224" stroke-width="1.10566"/>
<rect width="55.2828" height="55.2828" transform="matrix(8.74228e-08 1 1 -8.74228e-08 296.699 55.4316)" stroke="#093224" stroke-width="1.10566"/>
<rect width="55.2828" height="55.2828" transform="matrix(8.74228e-08 1 1 -8.74228e-08 296.699 110.714)" stroke="#093224" stroke-width="1.10566"/>
<rect width="55.2828" height="55.2828" transform="matrix(8.74228e-08 1 1 -8.74228e-08 296.699 165.997)" stroke="#093224" stroke-width="1.10566"/>
<rect width="55.2828" height="55.2828" transform="matrix(8.74228e-08 1 1 -8.74228e-08 351.977 55.4316)" stroke="#093224" stroke-width="1.10566"/>
<rect width="55.2828" height="55.2828" transform="matrix(8.74228e-08 1 1 -8.74228e-08 351.977 110.714)" stroke="#093224" stroke-width="1.10566"/>
<rect width="55.2828" height="55.2828" transform="matrix(8.74228e-08 1 1 -8.74228e-08 351.977 165.997)" stroke="#093224" stroke-width="1.10566"/>
<rect width="55.2828" height="55.2828" transform="matrix(8.74228e-08 1 1 -8.74228e-08 407.266 55.4316)" stroke="#093224" stroke-width="1.10566"/>
<rect width="55.2828" height="55.2828" transform="matrix(8.74228e-08 1 1 -8.74228e-08 407.266 110.714)" stroke="#093224" stroke-width="1.10566"/>
<rect width="55.2828" height="55.2828" transform="matrix(8.74228e-08 1 1 -8.74228e-08 407.266 165.997)" stroke="#093224" stroke-width="1.10566"/>
<rect width="55.2828" height="55.2828" transform="matrix(8.74228e-08 1 1 -8.74228e-08 462.543 55.4316)" stroke="#093224" stroke-width="1.10566"/>
<rect width="55.2828" height="55.2828" transform="matrix(8.74228e-08 1 1 -8.74228e-08 462.543 110.714)" stroke="#093224" stroke-width="1.10566"/>
<rect width="55.2828" height="55.2828" transform="matrix(8.74228e-08 1 1 -8.74228e-08 462.543 165.997)" stroke="#093224" stroke-width="1.10566"/>
<rect width="55.2828" height="55.2828" transform="matrix(8.74228e-08 1 1 -8.74228e-08 517.828 55.4316)" stroke="#093224" stroke-width="1.10566"/>
<rect width="55.2828" height="55.2828" transform="matrix(8.74228e-08 1 1 -8.74228e-08 517.828 110.714)" stroke="#093224" stroke-width="1.10566"/>
<rect width="55.2828" height="55.2828" transform="matrix(8.74228e-08 1 1 -8.74228e-08 517.828 165.997)" stroke="#093224" stroke-width="1.10566"/>
<rect width="55.2828" height="55.2828" transform="matrix(8.74228e-08 1 1 -8.74228e-08 573.109 55.4316)" stroke="#093224" stroke-width="1.10566"/>
<rect width="55.2828" height="55.2828" transform="matrix(8.74228e-08 1 1 -8.74228e-08 573.109 110.714)" stroke="#093224" stroke-width="1.10566"/>
<rect width="55.2828" height="55.2828" transform="matrix(8.74228e-08 1 1 -8.74228e-08 573.109 165.997)" stroke="#093224" stroke-width="1.10566"/>
<rect width="55.2828" height="55.2828" transform="matrix(8.74228e-08 1 1 -8.74228e-08 628.395 55.4316)" stroke="#093224" stroke-width="1.10566"/>
<rect width="55.2828" height="55.2828" transform="matrix(8.74228e-08 1 1 -8.74228e-08 628.395 110.714)" stroke="#093224" stroke-width="1.10566"/>
<rect width="55.2828" height="55.2828" transform="matrix(8.74228e-08 1 1 -8.74228e-08 628.395 165.997)" stroke="#093224" stroke-width="1.10566"/>
</g>
</g>
</g>
<defs>
<clipPath id="clip0_2251_7164">
<rect width="648" height="166" fill="white" transform="matrix(-1 4.37114e-08 4.37114e-08 1 648 0)"/>
</clipPath>
</defs>
</svg>
