<svg width="627" height="514" viewBox="0 0 627 514" fill="none" xmlns="http://www.w3.org/2000/svg">
<g opacity="0.2">
<mask id="mask0_2237_4648" style="mask-type:alpha" maskUnits="userSpaceOnUse" x="128" y="-53" width="551" height="551">
<circle cx="403.5" cy="222.5" r="275.5" fill="#D9D9D9"/>
</mask>
<g mask="url(#mask0_2237_4648)">
<rect x="118.238" y="-33.3535" width="46.6475" height="46.6475" stroke="#093224" stroke-width="0.93295"/>
<rect x="164.885" y="-33.3535" width="46.6475" height="46.6475" stroke="#093224" stroke-width="0.93295"/>
<rect x="211.533" y="-33.3535" width="46.6475" height="46.6475" stroke="#093224" stroke-width="0.93295"/>
<rect x="258.18" y="-33.3535" width="46.6475" height="46.6475" stroke="#093224" stroke-width="0.93295"/>
<rect x="304.828" y="-33.3535" width="46.6475" height="46.6475" fill="#093224" fill-opacity="0.05" stroke="#093224" stroke-width="0.93295"/>
<rect x="351.475" y="-33.3535" width="46.6475" height="46.6475" stroke="#093224" stroke-width="0.93295"/>
<rect x="398.123" y="-33.3535" width="46.6475" height="46.6475" stroke="#093224" stroke-width="0.93295"/>
<rect x="444.77" y="-33.3535" width="46.6475" height="46.6475" stroke="#093224" stroke-width="0.93295"/>
<rect x="491.418" y="-33.3535" width="46.6475" height="46.6475" stroke="#093224" stroke-width="0.93295"/>
<rect x="538.064" y="-33.3535" width="46.6475" height="46.6475" stroke="#093224" stroke-width="0.93295"/>
<rect x="584.713" y="-33.3535" width="46.6475" height="46.6475" stroke="#093224" stroke-width="0.93295"/>
<rect x="118.238" y="13.2969" width="46.6475" height="46.6475" stroke="#093224" stroke-width="0.93295"/>
<rect x="164.885" y="13.2969" width="46.6475" height="46.6475" stroke="#093224" stroke-width="0.93295"/>
<rect x="211.533" y="13.2969" width="46.6475" height="46.6475" stroke="#093224" stroke-width="0.93295"/>
<rect x="258.18" y="13.2969" width="46.6475" height="46.6475" stroke="#093224" stroke-width="0.93295"/>
<rect x="304.828" y="13.2969" width="46.6475" height="46.6475" stroke="#093224" stroke-width="0.93295"/>
<rect x="351.475" y="13.2969" width="46.6475" height="46.6475" stroke="#093224" stroke-width="0.93295"/>
<rect x="398.123" y="13.2969" width="46.6475" height="46.6475" stroke="#093224" stroke-width="0.93295"/>
<rect x="444.77" y="13.2969" width="46.6475" height="46.6475" stroke="#093224" stroke-width="0.93295"/>
<rect x="491.418" y="13.2969" width="46.6475" height="46.6475" stroke="#093224" stroke-width="0.93295"/>
<rect x="538.064" y="13.2969" width="46.6475" height="46.6475" stroke="#093224" stroke-width="0.93295"/>
<rect x="584.713" y="13.2969" width="46.6475" height="46.6475" stroke="#093224" stroke-width="0.93295"/>
<rect x="118.238" y="59.9414" width="46.6475" height="46.6475" stroke="#093224" stroke-width="0.93295"/>
<rect x="164.885" y="59.9414" width="46.6475" height="46.6475" stroke="#093224" stroke-width="0.93295"/>
<rect x="211.533" y="59.9414" width="46.6475" height="46.6475" stroke="#093224" stroke-width="0.93295"/>
<rect x="258.18" y="59.9414" width="46.6475" height="46.6475" fill="#093224" stroke="#093224" stroke-width="0.93295"/>
<rect x="304.828" y="59.9414" width="46.6475" height="46.6475" stroke="#093224" stroke-width="0.93295"/>
<rect x="351.475" y="59.9414" width="46.6475" height="46.6475" stroke="#093224" stroke-width="0.93295"/>
<rect x="398.123" y="59.9414" width="46.6475" height="46.6475" stroke="#093224" stroke-width="0.93295"/>
<rect x="444.77" y="59.9414" width="46.6475" height="46.6475" stroke="#093224" stroke-width="0.93295"/>
<rect x="491.418" y="59.9414" width="46.6475" height="46.6475" stroke="#093224" stroke-width="0.93295"/>
<rect x="538.064" y="59.9414" width="46.6475" height="46.6475" stroke="#093224" stroke-width="0.93295"/>
<rect x="584.713" y="59.9414" width="46.6475" height="46.6475" stroke="#093224" stroke-width="0.93295"/>
<rect x="118.238" y="106.59" width="46.6475" height="46.6475" stroke="#093224" stroke-width="0.93295"/>
<rect x="164.885" y="106.59" width="46.6475" height="46.6475" stroke="#093224" stroke-width="0.93295"/>
<rect x="211.533" y="106.59" width="46.6475" height="46.6475" stroke="#093224" stroke-width="0.93295"/>
<rect x="258.18" y="106.59" width="46.6475" height="46.6475" stroke="#093224" stroke-width="0.93295"/>
<rect x="304.828" y="106.59" width="46.6475" height="46.6475" stroke="#093224" stroke-width="0.93295"/>
<rect x="351.475" y="106.59" width="46.6475" height="46.6475" stroke="#093224" stroke-width="0.93295"/>
<rect x="398.123" y="106.59" width="46.6475" height="46.6475" stroke="#093224" stroke-width="0.93295"/>
<rect x="444.77" y="106.59" width="46.6475" height="46.6475" stroke="#093224" stroke-width="0.93295"/>
<rect x="491.418" y="106.59" width="46.6475" height="46.6475" stroke="#093224" stroke-width="0.93295"/>
<rect x="538.064" y="106.59" width="46.6475" height="46.6475" fill="#093224" stroke="#093224" stroke-width="0.93295"/>
<rect x="584.713" y="106.59" width="46.6475" height="46.6475" stroke="#093224" stroke-width="0.93295"/>
<rect x="118.238" y="153.236" width="46.6475" height="46.6475" stroke="#093224" stroke-width="0.93295"/>
<rect x="164.885" y="153.236" width="46.6475" height="46.6475" stroke="#093224" stroke-width="0.93295"/>
<rect x="211.533" y="153.236" width="46.6475" height="46.6475" stroke="#093224" stroke-width="0.93295"/>
<rect x="258.18" y="153.236" width="46.6475" height="46.6475" stroke="#093224" stroke-width="0.93295"/>
<rect x="304.828" y="153.236" width="46.6475" height="46.6475" stroke="#093224" stroke-width="0.93295"/>
<rect x="351.475" y="153.236" width="46.6475" height="46.6475" fill="#093224" stroke="#093224" stroke-width="0.93295"/>
<rect x="398.123" y="153.236" width="46.6475" height="46.6475" stroke="#093224" stroke-width="0.93295"/>
<rect x="444.77" y="153.236" width="46.6475" height="46.6475" stroke="#093224" stroke-width="0.93295"/>
<rect x="491.418" y="153.236" width="46.6475" height="46.6475" stroke="#093224" stroke-width="0.93295"/>
<rect x="538.064" y="153.236" width="46.6475" height="46.6475" stroke="#093224" stroke-width="0.93295"/>
<rect x="584.713" y="153.236" width="46.6475" height="46.6475" stroke="#093224" stroke-width="0.93295"/>
<rect x="118.238" y="199.885" width="46.6475" height="46.6475" stroke="#093224" stroke-width="0.93295"/>
<rect x="164.885" y="199.885" width="46.6475" height="46.6475" stroke="#093224" stroke-width="0.93295"/>
<rect x="211.533" y="199.885" width="46.6475" height="46.6475" stroke="#093224" stroke-width="0.93295"/>
<rect x="258.18" y="199.885" width="46.6475" height="46.6475" stroke="#093224" stroke-width="0.93295"/>
<rect x="304.828" y="199.885" width="46.6475" height="46.6475" stroke="#093224" stroke-width="0.93295"/>
<rect x="351.475" y="199.885" width="46.6475" height="46.6475" stroke="#093224" stroke-width="0.93295"/>
<rect x="398.123" y="199.885" width="46.6475" height="46.6475" stroke="#093224" stroke-width="0.93295"/>
<rect x="444.77" y="199.885" width="46.6475" height="46.6475" stroke="#093224" stroke-width="0.93295"/>
<rect x="491.418" y="199.885" width="46.6475" height="46.6475" stroke="#093224" stroke-width="0.93295"/>
<rect x="538.064" y="199.885" width="46.6475" height="46.6475" stroke="#093224" stroke-width="0.93295"/>
<rect x="584.713" y="199.885" width="46.6475" height="46.6475" stroke="#093224" stroke-width="0.93295"/>
<rect x="118.238" y="246.531" width="46.6475" height="46.6475" stroke="#093224" stroke-width="0.93295"/>
<rect x="164.885" y="246.531" width="46.6475" height="46.6475" stroke="#093224" stroke-width="0.93295"/>
<rect x="211.533" y="246.531" width="46.6475" height="46.6475" stroke="#093224" stroke-width="0.93295"/>
<rect x="258.18" y="246.531" width="46.6475" height="46.6475" fill="#093224" fill-opacity="0.05" stroke="#093224" stroke-width="0.93295"/>
<rect x="304.828" y="246.531" width="46.6475" height="46.6475" stroke="#093224" stroke-width="0.93295"/>
<rect x="351.475" y="246.531" width="46.6475" height="46.6475" stroke="#093224" stroke-width="0.93295"/>
<rect x="398.123" y="246.531" width="46.6475" height="46.6475" stroke="#093224" stroke-width="0.93295"/>
<rect x="444.77" y="246.531" width="46.6475" height="46.6475" stroke="#093224" stroke-width="0.93295"/>
<rect x="491.418" y="246.531" width="46.6475" height="46.6475" stroke="#093224" stroke-width="0.93295"/>
<rect x="538.064" y="246.531" width="46.6475" height="46.6475" stroke="#093224" stroke-width="0.93295"/>
<rect x="584.713" y="246.531" width="46.6475" height="46.6475" stroke="#093224" stroke-width="0.93295"/>
<rect x="118.238" y="293.18" width="46.6475" height="46.6475" stroke="#093224" stroke-width="0.93295"/>
<rect x="164.885" y="293.18" width="46.6475" height="46.6475" stroke="#093224" stroke-width="0.93295"/>
<rect x="211.533" y="293.18" width="46.6475" height="46.6475" stroke="#093224" stroke-width="0.93295"/>
<rect x="258.18" y="293.18" width="46.6475" height="46.6475" stroke="#093224" stroke-width="0.93295"/>
<rect x="304.828" y="293.18" width="46.6475" height="46.6475" stroke="#093224" stroke-width="0.93295"/>
<rect x="351.475" y="293.18" width="46.6475" height="46.6475" stroke="#093224" stroke-width="0.93295"/>
<rect x="398.123" y="293.18" width="46.6475" height="46.6475" stroke="#093224" stroke-width="0.93295"/>
<rect x="444.77" y="293.18" width="46.6475" height="46.6475" stroke="#093224" stroke-width="0.93295"/>
<rect x="491.418" y="293.18" width="46.6475" height="46.6475" fill="#093224" stroke="#093224" stroke-width="0.93295"/>
<rect x="538.064" y="293.18" width="46.6475" height="46.6475" stroke="#093224" stroke-width="0.93295"/>
<rect x="584.713" y="293.18" width="46.6475" height="46.6475" stroke="#093224" stroke-width="0.93295"/>
<rect x="118.238" y="339.826" width="46.6475" height="46.6475" stroke="#093224" stroke-width="0.93295"/>
<rect x="164.885" y="339.826" width="46.6475" height="46.6475" stroke="#093224" stroke-width="0.93295"/>
<rect x="211.533" y="339.826" width="46.6475" height="46.6475" stroke="#093224" stroke-width="0.93295"/>
<rect x="258.18" y="339.826" width="46.6475" height="46.6475" stroke="#093224" stroke-width="0.93295"/>
<rect x="304.828" y="339.826" width="46.6475" height="46.6475" stroke="#093224" stroke-width="0.93295"/>
<rect x="351.475" y="339.826" width="46.6475" height="46.6475" stroke="#093224" stroke-width="0.93295"/>
<rect x="398.123" y="339.826" width="46.6475" height="46.6475" stroke="#093224" stroke-width="0.93295"/>
<rect x="444.77" y="339.826" width="46.6475" height="46.6475" stroke="#093224" stroke-width="0.93295"/>
<rect x="491.418" y="339.826" width="46.6475" height="46.6475" stroke="#093224" stroke-width="0.93295"/>
<rect x="538.064" y="339.826" width="46.6475" height="46.6475" stroke="#093224" stroke-width="0.93295"/>
<rect x="584.713" y="339.826" width="46.6475" height="46.6475" stroke="#093224" stroke-width="0.93295"/>
<rect x="118.238" y="386.477" width="46.6475" height="46.6475" stroke="#093224" stroke-width="0.93295"/>
<rect x="164.885" y="386.477" width="46.6475" height="46.6475" stroke="#093224" stroke-width="0.93295"/>
<rect x="211.533" y="386.477" width="46.6475" height="46.6475" stroke="#093224" stroke-width="0.93295"/>
<rect x="258.18" y="386.477" width="46.6475" height="46.6475" stroke="#093224" stroke-width="0.93295"/>
<rect x="304.828" y="386.477" width="46.6475" height="46.6475" stroke="#093224" stroke-width="0.93295"/>
<rect x="351.475" y="386.477" width="46.6475" height="46.6475" stroke="#093224" stroke-width="0.93295"/>
<rect x="398.123" y="386.477" width="46.6475" height="46.6475" stroke="#093224" stroke-width="0.93295"/>
<rect x="444.77" y="386.477" width="46.6475" height="46.6475" stroke="#093224" stroke-width="0.93295"/>
<rect x="491.418" y="386.477" width="46.6475" height="46.6475" stroke="#093224" stroke-width="0.93295"/>
<rect x="538.064" y="386.477" width="46.6475" height="46.6475" stroke="#093224" stroke-width="0.93295"/>
<rect x="584.713" y="386.477" width="46.6475" height="46.6475" stroke="#093224" stroke-width="0.93295"/>
<rect x="118.238" y="433.121" width="46.6475" height="46.6475" stroke="#093224" stroke-width="0.93295"/>
<rect x="164.885" y="433.121" width="46.6475" height="46.6475" stroke="#093224" stroke-width="0.93295"/>
<rect x="211.533" y="433.121" width="46.6475" height="46.6475" stroke="#093224" stroke-width="0.93295"/>
<rect x="258.18" y="433.121" width="46.6475" height="46.6475" stroke="#093224" stroke-width="0.93295"/>
<rect x="304.828" y="433.121" width="46.6475" height="46.6475" stroke="#093224" stroke-width="0.93295"/>
<rect x="351.475" y="433.121" width="46.6475" height="46.6475" stroke="#093224" stroke-width="0.93295"/>
<rect x="398.123" y="433.121" width="46.6475" height="46.6475" stroke="#093224" stroke-width="0.93295"/>
<rect x="444.77" y="433.121" width="46.6475" height="46.6475" stroke="#093224" stroke-width="0.93295"/>
<rect x="491.418" y="433.121" width="46.6475" height="46.6475" stroke="#093224" stroke-width="0.93295"/>
<rect x="538.064" y="433.121" width="46.6475" height="46.6475" stroke="#093224" stroke-width="0.93295"/>
<rect x="584.713" y="433.121" width="46.6475" height="46.6475" stroke="#093224" stroke-width="0.93295"/>
<rect x="118.238" y="479.771" width="46.6475" height="46.6475" stroke="#093224" stroke-width="0.93295"/>
<rect x="164.885" y="479.771" width="46.6475" height="46.6475" stroke="#093224" stroke-width="0.93295"/>
<rect x="211.533" y="479.771" width="46.6475" height="46.6475" stroke="#093224" stroke-width="0.93295"/>
<rect x="258.18" y="479.771" width="46.6475" height="46.6475" stroke="#093224" stroke-width="0.93295"/>
<rect x="304.828" y="479.771" width="46.6475" height="46.6475" stroke="#093224" stroke-width="0.93295"/>
<rect x="351.475" y="479.771" width="46.6475" height="46.6475" stroke="#093224" stroke-width="0.93295"/>
<rect x="398.123" y="479.771" width="46.6475" height="46.6475" stroke="#093224" stroke-width="0.93295"/>
<rect x="444.77" y="479.771" width="46.6475" height="46.6475" stroke="#093224" stroke-width="0.93295"/>
<rect x="491.418" y="479.771" width="46.6475" height="46.6475" stroke="#093224" stroke-width="0.93295"/>
<rect x="538.064" y="479.771" width="46.6475" height="46.6475" stroke="#093224" stroke-width="0.93295"/>
<rect x="584.713" y="479.771" width="46.6475" height="46.6475" stroke="#093224" stroke-width="0.93295"/>
</g>
</g>
</svg>
